<svg width="1440" height="738" viewBox="0 0 1440 738" fill="none" xmlns="http://www.w3.org/2000/svg">
<mask id="mask0_1652_5143" style="mask-type:alpha" maskUnits="userSpaceOnUse" x="-314" y="-324" width="1964" height="1509">
<g clip-path="url(#clip0_1652_5143)">
<path d="M727.796 222.001C727.796 356.961 537.467 477.494 427.394 477.494C317.32 477.494 -370.406 4.1382 -370.406 -130.821C-370.406 -265.781 617.723 -79.9841 727.796 -79.9841C837.87 -79.9841 727.796 87.0417 727.796 222.001Z" fill="url(#paint0_linear_1652_5143)" style=""/>
<path d="M805.79 877.445C805.79 1012.4 716.557 1121.81 606.484 1121.81C496.411 1121.81 -116.793 1090.35 -116.793 955.393C-116.793 820.433 -114.77 466.38 -4.69703 466.38C286.06 621.569 521.628 394.156 714.169 480.65C877.644 554.087 771.91 777.972 805.79 877.445Z" fill="url(#paint1_radial_1652_5143)" style=""/>
<path d="M1031.87 299.498C1328.87 567.739 1191.67 432.937 1446.77 426.146C1486.79 433.855 1554.72 434.221 1506.32 374.017C1445.82 298.761 1465.32 245.607 1389.71 163.616C1314.1 81.6249 1268.05 -1.67678 1153.9 -132.082C1039.74 -262.487 1030.96 -154.99 902.271 -165.18C773.58 -175.371 832.276 -159.188 654.715 30.024C477.154 219.236 734.874 31.2574 1031.87 299.498Z" fill="#D9D9D9" style="fill:#D9D9D9;fill:color(display-p3 0.8510 0.8510 0.8510);fill-opacity:1;"/>
<path d="M751.483 721.425C354.027 768.219 545.823 753.776 382.912 950.193C350.754 975.227 305.732 1026.1 382.912 1029.34C479.388 1033.38 506.539 1083.06 618.035 1080.17C729.53 1077.29 822.54 1097.51 995.849 1097.51C1169.16 1097.51 1094.06 1020.09 1186.49 929.974C1278.92 839.853 1228.08 873.36 1202.66 615.129C1177.25 356.898 1148.94 674.632 751.483 721.425Z" fill="#D9D9D9" style="fill:#D9D9D9;fill:color(display-p3 0.8510 0.8510 0.8510);fill-opacity:1;"/>
</g>
</mask>
<g mask="url(#mask0_1652_5143)">
<line x1="3.94141" y1="579.312" x2="1389.26" y2="579.312" stroke="#E0EEFF" stroke-opacity="0.8" style="stroke:#E0EEFF;stroke:color(display-p3 0.8799 0.9345 1.0000);stroke-opacity:0.8;" stroke-width="1.15539"/>
<line x1="4" y1="283.422" x2="1421" y2="283.422" stroke="#E0EEFF" stroke-opacity="0.8" style="stroke:#E0EEFF;stroke:color(display-p3 0.8799 0.9345 1.0000);stroke-opacity:0.8;" stroke-width="1.15539"/>
<line x1="3.94141" y1="431.42" x2="1389.26" y2="431.42" stroke="#E0EEFF" stroke-opacity="0.8" style="stroke:#E0EEFF;stroke:color(display-p3 0.8799 0.9345 1.0000);stroke-opacity:0.8;" stroke-width="1.15539"/>
<line x1="3.94141" y1="727.201" x2="1389.26" y2="727.201" stroke="#E0EEFF" stroke-opacity="0.8" style="stroke:#E0EEFF;stroke:color(display-p3 0.8799 0.9345 1.0000);stroke-opacity:0.8;" stroke-width="1.15539"/>
<line x1="3.94141" y1="135.64" x2="1389.26" y2="135.64" stroke="#E0EEFF" stroke-opacity="0.8" style="stroke:#E0EEFF;stroke:color(display-p3 0.8799 0.9345 1.0000);stroke-opacity:0.8;" stroke-width="1.15539"/>
<line x1="3.94141" y1="505.366" x2="1389.26" y2="505.366" stroke="#E0EEFF" stroke-opacity="0.8" style="stroke:#E0EEFF;stroke:color(display-p3 0.8799 0.9345 1.0000);stroke-opacity:0.8;" stroke-width="1.15539"/>
<line x1="4" y1="209.422" x2="1421" y2="209.422" stroke="#E0EEFF" stroke-opacity="0.8" style="stroke:#E0EEFF;stroke:color(display-p3 0.8799 0.9345 1.0000);stroke-opacity:0.8;" stroke-width="1.15539"/>
<line x1="3.94141" y1="357.475" x2="1389.26" y2="357.475" stroke="#E0EEFF" stroke-opacity="0.8" style="stroke:#E0EEFF;stroke:color(display-p3 0.8799 0.9345 1.0000);stroke-opacity:0.8;" stroke-width="1.15539"/>
<line x1="3.94141" y1="653.258" x2="1389.26" y2="653.258" stroke="#E0EEFF" stroke-opacity="0.8" style="stroke:#E0EEFF;stroke:color(display-p3 0.8799 0.9345 1.0000);stroke-opacity:0.8;" stroke-width="1.15539"/>
<line x1="3.94141" y1="61.6943" x2="1389.26" y2="61.6943" stroke="#E0EEFF" stroke-opacity="0.8" style="stroke:#E0EEFF;stroke:color(display-p3 0.8799 0.9345 1.0000);stroke-opacity:0.8;" stroke-width="1.15539"/>
<line x1="47.2691" y1="-38.2466" x2="47.2691" y2="1031.65" stroke="#E0EEFF" stroke-opacity="0.8" style="stroke:#E0EEFF;stroke:color(display-p3 0.8799 0.9345 1.0000);stroke-opacity:0.8;" stroke-width="1.15539"/>
<line x1="638.836" y1="-38.2466" x2="638.835" y2="1031.65" stroke="#E0EEFF" stroke-opacity="0.8" style="stroke:#E0EEFF;stroke:color(display-p3 0.8799 0.9345 1.0000);stroke-opacity:0.8;" stroke-width="1.15539"/>
<line x1="343.05" y1="-38.2466" x2="343.05" y2="1031.65" stroke="#E0EEFF" stroke-opacity="0.8" style="stroke:#E0EEFF;stroke:color(display-p3 0.8799 0.9345 1.0000);stroke-opacity:0.8;" stroke-width="1.15539"/>
<line x1="934.617" y1="-38.2466" x2="934.617" y2="1031.65" stroke="#E0EEFF" stroke-opacity="0.8" style="stroke:#E0EEFF;stroke:color(display-p3 0.8799 0.9345 1.0000);stroke-opacity:0.8;" stroke-width="1.15539"/>
<line x1="1230.4" y1="-38.2466" x2="1230.4" y2="1031.65" stroke="#E0EEFF" stroke-opacity="0.8" style="stroke:#E0EEFF;stroke:color(display-p3 0.8799 0.9345 1.0000);stroke-opacity:0.8;" stroke-width="1.15539"/>
<line x1="195.164" y1="-38.2466" x2="195.164" y2="1031.65" stroke="#E0EEFF" stroke-opacity="0.8" style="stroke:#E0EEFF;stroke:color(display-p3 0.8799 0.9345 1.0000);stroke-opacity:0.8;" stroke-width="1.15539"/>
<line x1="786.722" y1="-38.2466" x2="786.722" y2="1031.65" stroke="#E0EEFF" stroke-opacity="0.8" style="stroke:#E0EEFF;stroke:color(display-p3 0.8799 0.9345 1.0000);stroke-opacity:0.8;" stroke-width="1.15539"/>
<line x1="490.945" y1="-38.2466" x2="490.945" y2="1031.65" stroke="#E0EEFF" stroke-opacity="0.8" style="stroke:#E0EEFF;stroke:color(display-p3 0.8799 0.9345 1.0000);stroke-opacity:0.8;" stroke-width="1.15539"/>
<line x1="1082.5" y1="-38.2466" x2="1082.5" y2="1031.65" stroke="#E0EEFF" stroke-opacity="0.8" style="stroke:#E0EEFF;stroke:color(display-p3 0.8799 0.9345 1.0000);stroke-opacity:0.8;" stroke-width="1.15539"/>
<line x1="1378.29" y1="-38.2466" x2="1378.29" y2="1031.65" stroke="#E0EEFF" stroke-opacity="0.8" style="stroke:#E0EEFF;stroke:color(display-p3 0.8799 0.9345 1.0000);stroke-opacity:0.8;" stroke-width="1.15539"/>
<line x1="121.218" y1="-38.2466" x2="121.218" y2="1031.65" stroke="#E0EEFF" stroke-opacity="0.8" style="stroke:#E0EEFF;stroke:color(display-p3 0.8799 0.9345 1.0000);stroke-opacity:0.8;" stroke-width="1.15539"/>
<line x1="712.781" y1="-38.2466" x2="712.781" y2="1031.65" stroke="#E0EEFF" stroke-opacity="0.8" style="stroke:#E0EEFF;stroke:color(display-p3 0.8799 0.9345 1.0000);stroke-opacity:0.8;" stroke-width="1.15539"/>
<line x1="416.996" y1="-38.2466" x2="416.996" y2="1031.65" stroke="#E0EEFF" stroke-opacity="0.8" style="stroke:#E0EEFF;stroke:color(display-p3 0.8799 0.9345 1.0000);stroke-opacity:0.8;" stroke-width="1.15539"/>
<line x1="1008.56" y1="-38.2466" x2="1008.56" y2="1031.65" stroke="#E0EEFF" stroke-opacity="0.8" style="stroke:#E0EEFF;stroke:color(display-p3 0.8799 0.9345 1.0000);stroke-opacity:0.8;" stroke-width="1.15539"/>
<line x1="1304.34" y1="-38.2466" x2="1304.34" y2="1031.65" stroke="#E0EEFF" stroke-opacity="0.8" style="stroke:#E0EEFF;stroke:color(display-p3 0.8799 0.9345 1.0000);stroke-opacity:0.8;" stroke-width="1.15539"/>
<line x1="269.105" y1="-38.2466" x2="269.105" y2="1031.65" stroke="#E0EEFF" stroke-opacity="0.8" style="stroke:#E0EEFF;stroke:color(display-p3 0.8799 0.9345 1.0000);stroke-opacity:0.8;" stroke-width="1.15539"/>
<line x1="860.671" y1="-38.2466" x2="860.671" y2="1031.65" stroke="#E0EEFF" stroke-opacity="0.8" style="stroke:#E0EEFF;stroke:color(display-p3 0.8799 0.9345 1.0000);stroke-opacity:0.8;" stroke-width="1.15539"/>
<line x1="564.886" y1="-38.2466" x2="564.886" y2="1031.65" stroke="#E0EEFF" stroke-opacity="0.8" style="stroke:#E0EEFF;stroke:color(display-p3 0.8799 0.9345 1.0000);stroke-opacity:0.8;" stroke-width="1.15539"/>
<line x1="1156.45" y1="-38.2466" x2="1156.45" y2="1031.65" stroke="#E0EEFF" stroke-opacity="0.8" style="stroke:#E0EEFF;stroke:color(display-p3 0.8799 0.9345 1.0000);stroke-opacity:0.8;" stroke-width="1.15539"/>
</g>
<defs>
<linearGradient id="paint0_linear_1652_5143" x1="105.616" y1="-63.2307" x2="522.136" y2="158.605" gradientUnits="userSpaceOnUse">
<stop stop-color="white" style="stop-color:white;stop-opacity:1;"/>
<stop offset="1" stop-color="white" stop-opacity="0" style="stop-color:none;stop-opacity:0;"/>
</linearGradient>
<radialGradient id="paint1_radial_1652_5143" cx="0" cy="0" r="1" gradientUnits="userSpaceOnUse" gradientTransform="translate(175.522 883.181) rotate(-29.3932) scale(712.116 1223.92)">
<stop stop-color="white" style="stop-color:white;stop-opacity:1;"/>
<stop offset="1" stop-color="white" stop-opacity="0" style="stop-color:none;stop-opacity:0;"/>
</radialGradient>
<clipPath id="clip0_1652_5143">
<rect width="1964" height="1508.51" fill="white" style="fill:white;fill-opacity:1;" transform="translate(-314 -324)"/>
</clipPath>
</defs>
</svg>
