<svg width="22" height="23" viewBox="0 0 22 23" fill="none" xmlns="http://www.w3.org/2000/svg">
<path d="M16.4998 2.33337V4.16671M5.49984 2.33337V4.16671M19.7082 11.0417C19.7045 7.49787 19.6413 5.65904 18.5605 4.49121C17.4128 3.25004 15.5648 3.25004 11.8707 3.25004H10.129C6.43484 3.25004 4.58684 3.25004 3.43917 4.49121C2.2915 5.73146 2.2915 7.72887 2.2915 11.7237V12.194C2.2915 16.1879 2.2915 18.1853 3.43917 19.4265C4.53917 20.6145 6.23775 20.664 9.62484 20.6667M2.74984 7.83337H19.2498" stroke="#475569" style="stroke:#475569;stroke:color(display-p3 0.2784 0.3333 0.4118);stroke-opacity:1;" stroke-width="1.5" stroke-linecap="round" stroke-linejoin="round"/>
<path d="M16.0417 19.4879V20.6667M16.0417 19.4879C15.5434 19.4914 15.0517 19.374 14.6088 19.1456C14.1659 18.9173 13.785 18.585 13.4988 18.1771M16.0417 19.4879C16.5399 19.4914 17.0316 19.374 17.4745 19.1456C17.9174 18.9173 18.2983 18.585 18.5845 18.1771M16.0417 13.5947C17.1023 13.5947 18.0363 14.1153 18.5845 14.9055C18.9185 15.3851 19.0975 15.9564 19.0975 16.5408C19.0975 17.1253 18.9185 17.6957 18.5845 18.1752L19.7083 18.8976M16.0417 13.5947C15.5434 13.5912 15.0517 13.7086 14.6088 13.9369C14.1659 14.1653 13.785 14.4976 13.4988 14.9055C13.1648 15.3851 12.9858 15.9564 12.9858 16.5408C12.9858 17.1253 13.1648 17.6957 13.4988 18.1752L12.375 18.8976M16.0417 13.5947V12.4167M19.7083 14.185L18.5845 14.9073M12.375 14.1859L13.4988 14.9082" stroke="#475569" style="stroke:#475569;stroke:color(display-p3 0.2784 0.3333 0.4118);stroke-opacity:1;" stroke-width="1.5" stroke-linecap="round" stroke-linejoin="round"/>
</svg>
