<svg width="105" height="54" viewBox="0 0 105 54" fill="none" xmlns="http://www.w3.org/2000/svg">
<mask id="path-1-outside-1_944_3433" maskUnits="userSpaceOnUse" x="-0.113281" y="-0.045105" width="105" height="54" fill="black">
<rect fill="white" x="-0.113281" y="-0.045105" width="105" height="54"/>
<path d="M0.5 1.48224H8.40234V26.2557C8.40234 28.0786 8.63932 29.4093 9.11328 30.2479C9.60547 31.0682 10.7266 31.4783 12.4766 31.4783H13.1602V39.9549H12.4766C8.28385 39.9549 5.23958 38.8794 3.34375 36.7283C1.44792 34.5591 0.5 31.3325 0.5 27.0486V1.48224ZM22.6211 14.9354C25.1185 16.3755 27.1146 17.6515 28.6094 18.7635C30.1224 19.8572 31.3255 20.9783 32.2188 22.1268C33.112 23.2752 33.8958 24.6697 34.5703 26.3104C35.099 27.5864 35.5911 28.6072 36.0469 29.3729C36.5208 30.1203 37.1315 30.658 37.8789 30.9861C38.6263 31.3143 39.6654 31.4783 40.9961 31.4783H41.7617V39.9549H40.9961C38.7721 39.9549 36.9036 39.645 35.3906 39.0252C33.8776 38.4054 32.6107 37.3572 31.5898 35.8807C30.6055 36.938 29.5482 37.7674 28.418 38.369C27.2878 38.9523 25.9479 39.3624 24.3984 39.5994C22.8672 39.8364 20.9805 39.9549 18.7383 39.9549H12.0664V31.4783H18.7109C21.5 31.4783 23.6146 31.296 25.0547 30.9315C26.513 30.5669 27.2422 29.8012 27.2422 28.6346C27.2422 28.1424 26.7865 27.5408 25.875 26.8299C24.9818 26.1007 23.8607 25.3169 22.5117 24.4783C21.181 23.6398 19.8229 22.8104 18.4375 21.9901C17.0703 21.1697 15.9128 20.4223 14.9648 19.7479C14.181 19.1645 13.5794 18.3898 13.1602 17.4236C12.7409 16.4393 12.5312 15.4276 12.5312 14.3885C12.5312 13.2765 12.7773 12.283 13.2695 11.408C13.7617 10.5148 14.5182 9.86766 15.5391 9.46661L36.9219 0.743958V9.13849L22.6211 14.9354ZM46.4648 39.9549H40.6133V31.4783H46.5195C47.8138 31.4783 48.707 31.0682 49.1992 30.2479C49.6914 29.4276 49.9375 28.3794 49.9375 27.1033C49.9375 25.8637 49.7826 24.4966 49.4727 23.0018C49.1628 21.507 48.8438 20.0486 48.5156 18.6268L56.1445 16.658C56.5091 18.4262 56.7917 20.1762 56.9922 21.908C57.2109 23.6398 57.3203 25.2986 57.3203 26.8846C57.3203 29.3637 56.9922 31.5877 56.3359 33.5565C55.6797 35.5252 54.5586 37.0838 52.9727 38.2322C51.4049 39.3807 49.2357 39.9549 46.4648 39.9549ZM41.2969 43.2908L45.9727 47.8846L50.5938 43.2908L55.4336 48.1033L50.5938 52.9705L45.9727 48.3221L41.2969 52.9705L36.5117 48.1033L41.2969 43.2908ZM63.1172 1.48224H71.0195V26.2557C71.0195 28.0786 71.2565 29.4093 71.7305 30.2479C72.2227 31.0682 73.3438 31.4783 75.0938 31.4783H75.7773V39.9549H75.0938C70.901 39.9549 67.8568 38.8794 65.9609 36.7283C64.0651 34.5591 63.1172 31.3325 63.1172 27.0486V1.48224ZM93.9336 40.5838C92.0195 40.5838 90.2331 40.1736 88.5742 39.3533C86.9154 38.533 85.3021 37.5669 83.7344 36.4549C83.0964 37.0747 82.4401 37.6489 81.7656 38.1776C81.0911 38.7062 80.2891 39.1346 79.3594 39.4627C78.4479 39.7908 77.2904 39.9549 75.8867 39.9549H74.6836V31.4783H75.75C76.5885 31.4783 77.3451 31.132 78.0195 30.4393C78.7122 29.7466 79.3958 28.8533 80.0703 27.7596C80.7448 26.6476 81.4557 25.4809 82.2031 24.2596C82.9688 23.0382 83.8164 21.8807 84.7461 20.7869C85.694 19.6749 86.7878 18.7726 88.0273 18.0799C89.2669 17.3872 90.707 17.0408 92.3477 17.0408C94.6992 17.0408 96.7318 17.5968 98.4453 18.7088C100.159 19.8208 101.471 21.2791 102.383 23.0838C103.312 24.8885 103.777 26.839 103.777 28.9354C103.777 31.1229 103.413 33.1007 102.684 34.869C101.973 36.619 100.888 38.0135 99.4297 39.0526C97.9896 40.0734 96.1576 40.5838 93.9336 40.5838ZM92.6211 25.0799C91.8919 25.0799 91.2357 25.326 90.6523 25.8182C90.0872 26.2921 89.5951 26.8572 89.1758 27.5135C88.7565 28.1697 88.4102 28.7804 88.1367 29.3455C88.6471 29.8012 89.1302 30.1932 89.5859 30.5213C90.0599 30.8494 90.4974 31.1229 90.8984 31.3416C91.5365 31.688 92.1107 31.9249 92.6211 32.0526C93.1315 32.1802 93.5872 32.244 93.9883 32.244C94.8815 32.244 95.5104 31.8976 95.875 31.2049C96.2396 30.5122 96.4219 29.7557 96.4219 28.9354C96.4219 27.9145 96.0846 27.0213 95.4102 26.2557C94.7357 25.4718 93.806 25.0799 92.6211 25.0799Z"/>
</mask>
<path d="M0.5 1.48224H8.40234V26.2557C8.40234 28.0786 8.63932 29.4093 9.11328 30.2479C9.60547 31.0682 10.7266 31.4783 12.4766 31.4783H13.1602V39.9549H12.4766C8.28385 39.9549 5.23958 38.8794 3.34375 36.7283C1.44792 34.5591 0.5 31.3325 0.5 27.0486V1.48224ZM22.6211 14.9354C25.1185 16.3755 27.1146 17.6515 28.6094 18.7635C30.1224 19.8572 31.3255 20.9783 32.2188 22.1268C33.112 23.2752 33.8958 24.6697 34.5703 26.3104C35.099 27.5864 35.5911 28.6072 36.0469 29.3729C36.5208 30.1203 37.1315 30.658 37.8789 30.9861C38.6263 31.3143 39.6654 31.4783 40.9961 31.4783H41.7617V39.9549H40.9961C38.7721 39.9549 36.9036 39.645 35.3906 39.0252C33.8776 38.4054 32.6107 37.3572 31.5898 35.8807C30.6055 36.938 29.5482 37.7674 28.418 38.369C27.2878 38.9523 25.9479 39.3624 24.3984 39.5994C22.8672 39.8364 20.9805 39.9549 18.7383 39.9549H12.0664V31.4783H18.7109C21.5 31.4783 23.6146 31.296 25.0547 30.9315C26.513 30.5669 27.2422 29.8012 27.2422 28.6346C27.2422 28.1424 26.7865 27.5408 25.875 26.8299C24.9818 26.1007 23.8607 25.3169 22.5117 24.4783C21.181 23.6398 19.8229 22.8104 18.4375 21.9901C17.0703 21.1697 15.9128 20.4223 14.9648 19.7479C14.181 19.1645 13.5794 18.3898 13.1602 17.4236C12.7409 16.4393 12.5312 15.4276 12.5312 14.3885C12.5312 13.2765 12.7773 12.283 13.2695 11.408C13.7617 10.5148 14.5182 9.86766 15.5391 9.46661L36.9219 0.743958V9.13849L22.6211 14.9354ZM46.4648 39.9549H40.6133V31.4783H46.5195C47.8138 31.4783 48.707 31.0682 49.1992 30.2479C49.6914 29.4276 49.9375 28.3794 49.9375 27.1033C49.9375 25.8637 49.7826 24.4966 49.4727 23.0018C49.1628 21.507 48.8438 20.0486 48.5156 18.6268L56.1445 16.658C56.5091 18.4262 56.7917 20.1762 56.9922 21.908C57.2109 23.6398 57.3203 25.2986 57.3203 26.8846C57.3203 29.3637 56.9922 31.5877 56.3359 33.5565C55.6797 35.5252 54.5586 37.0838 52.9727 38.2322C51.4049 39.3807 49.2357 39.9549 46.4648 39.9549ZM41.2969 43.2908L45.9727 47.8846L50.5938 43.2908L55.4336 48.1033L50.5938 52.9705L45.9727 48.3221L41.2969 52.9705L36.5117 48.1033L41.2969 43.2908ZM63.1172 1.48224H71.0195V26.2557C71.0195 28.0786 71.2565 29.4093 71.7305 30.2479C72.2227 31.0682 73.3438 31.4783 75.0938 31.4783H75.7773V39.9549H75.0938C70.901 39.9549 67.8568 38.8794 65.9609 36.7283C64.0651 34.5591 63.1172 31.3325 63.1172 27.0486V1.48224ZM93.9336 40.5838C92.0195 40.5838 90.2331 40.1736 88.5742 39.3533C86.9154 38.533 85.3021 37.5669 83.7344 36.4549C83.0964 37.0747 82.4401 37.6489 81.7656 38.1776C81.0911 38.7062 80.2891 39.1346 79.3594 39.4627C78.4479 39.7908 77.2904 39.9549 75.8867 39.9549H74.6836V31.4783H75.75C76.5885 31.4783 77.3451 31.132 78.0195 30.4393C78.7122 29.7466 79.3958 28.8533 80.0703 27.7596C80.7448 26.6476 81.4557 25.4809 82.2031 24.2596C82.9688 23.0382 83.8164 21.8807 84.7461 20.7869C85.694 19.6749 86.7878 18.7726 88.0273 18.0799C89.2669 17.3872 90.707 17.0408 92.3477 17.0408C94.6992 17.0408 96.7318 17.5968 98.4453 18.7088C100.159 19.8208 101.471 21.2791 102.383 23.0838C103.312 24.8885 103.777 26.839 103.777 28.9354C103.777 31.1229 103.413 33.1007 102.684 34.869C101.973 36.619 100.888 38.0135 99.4297 39.0526C97.9896 40.0734 96.1576 40.5838 93.9336 40.5838ZM92.6211 25.0799C91.8919 25.0799 91.2357 25.326 90.6523 25.8182C90.0872 26.2921 89.5951 26.8572 89.1758 27.5135C88.7565 28.1697 88.4102 28.7804 88.1367 29.3455C88.6471 29.8012 89.1302 30.1932 89.5859 30.5213C90.0599 30.8494 90.4974 31.1229 90.8984 31.3416C91.5365 31.688 92.1107 31.9249 92.6211 32.0526C93.1315 32.1802 93.5872 32.244 93.9883 32.244C94.8815 32.244 95.5104 31.8976 95.875 31.2049C96.2396 30.5122 96.4219 29.7557 96.4219 28.9354C96.4219 27.9145 96.0846 27.0213 95.4102 26.2557C94.7357 25.4718 93.806 25.0799 92.6211 25.0799Z" fill="url(#paint0_linear_944_3433)" style=""/>
<path d="M0.5 1.48224V0.982239H0V1.48224H0.5ZM8.40234 1.48224H8.90234V0.982239H8.40234V1.48224ZM9.11328 30.2479L8.67786 30.494L8.68454 30.5051L9.11328 30.2479ZM13.1602 31.4783H13.6602V30.9783H13.1602V31.4783ZM13.1602 39.9549V40.4549H13.6602V39.9549H13.1602ZM3.34375 36.7283L2.96726 37.0574L2.96864 37.0589L3.34375 36.7283ZM0.5 1.48224V1.98224H8.40234V1.48224V0.982239H0.5V1.48224ZM8.40234 1.48224H7.90234V26.2557H8.40234H8.90234V1.48224H8.40234ZM8.40234 26.2557H7.90234C7.90234 28.1005 8.1384 29.5392 8.67799 30.4939L9.11328 30.2479L9.54857 30.0018C9.14024 29.2794 8.90234 28.0567 8.90234 26.2557H8.40234ZM9.11328 30.2479L8.68454 30.5051C9.32222 31.5679 10.6946 31.9783 12.4766 31.9783V31.4783V30.9783C10.7585 30.9783 9.88872 30.5684 9.54202 29.9906L9.11328 30.2479ZM12.4766 31.4783V31.9783H13.1602V31.4783V30.9783H12.4766V31.4783ZM13.1602 31.4783H12.6602V39.9549H13.1602H13.6602V31.4783H13.1602ZM13.1602 39.9549V39.4549H12.4766V39.9549V40.4549H13.1602V39.9549ZM12.4766 39.9549V39.4549C8.35982 39.4549 5.48273 38.3991 3.71886 36.3977L3.34375 36.7283L2.96864 37.0589C4.99643 39.3597 8.20789 40.4549 12.4766 40.4549V39.9549ZM3.34375 36.7283L3.72024 36.3993C1.93503 34.3566 1 31.2688 1 27.0486H0.5H0C0 31.3962 0.960808 34.7615 2.96726 37.0574L3.34375 36.7283ZM0.5 27.0486H1V1.48224H0.5H0V27.0486H0.5ZM22.6211 14.9354L22.4333 14.472L21.4839 14.8568L22.3713 15.3685L22.6211 14.9354ZM28.6094 18.7635L28.3109 19.1647L28.3165 19.1687L28.6094 18.7635ZM34.5703 26.3104L34.1079 26.5005L34.1084 26.5017L34.5703 26.3104ZM36.0469 29.3729L35.6171 29.6287L35.6246 29.6406L36.0469 29.3729ZM41.7617 31.4783H42.2617V30.9783H41.7617V31.4783ZM41.7617 39.9549V40.4549H42.2617V39.9549H41.7617ZM31.5898 35.8807L32.0011 35.5963L31.6476 35.0849L31.2239 35.54L31.5898 35.8807ZM28.418 38.369L28.6473 38.8133L28.6529 38.8103L28.418 38.369ZM24.3984 39.5994L24.3228 39.1052L24.322 39.1053L24.3984 39.5994ZM12.0664 39.9549H11.5664V40.4549H12.0664V39.9549ZM12.0664 31.4783V30.9783H11.5664V31.4783H12.0664ZM25.0547 30.9315L24.9334 30.4464L24.932 30.4468L25.0547 30.9315ZM25.875 26.8299L25.5587 27.2173L25.5675 27.2241L25.875 26.8299ZM22.5117 24.4783L22.2451 24.9014L22.2478 24.903L22.5117 24.4783ZM18.4375 21.9901L18.1803 22.4188L18.1828 22.4203L18.4375 21.9901ZM14.9648 19.7479L14.6663 20.1491L14.675 20.1553L14.9648 19.7479ZM13.1602 17.4236L12.7001 17.6196L12.7015 17.6227L13.1602 17.4236ZM13.2695 11.408L13.7053 11.6532L13.7074 11.6493L13.2695 11.408ZM15.5391 9.46661L15.7219 9.93203L15.7279 9.92957L15.5391 9.46661ZM36.9219 0.743958H37.4219V-7.62939e-06L36.733 0.280995L36.9219 0.743958ZM36.9219 9.13849L37.1097 9.60187L37.4219 9.47533V9.13849H36.9219ZM22.6211 14.9354L22.3713 15.3685C24.8599 16.8035 26.8377 18.0687 28.3109 19.1647L28.6094 18.7635L28.9078 18.3623C27.3914 17.2343 25.3771 15.9474 22.8709 14.5022L22.6211 14.9354ZM28.6094 18.7635L28.3165 19.1687C29.8013 20.2421 30.9668 21.3315 31.8241 22.4337L32.2188 22.1268L32.6134 21.8198C31.6842 20.6251 30.4435 19.4724 28.9023 18.3583L28.6094 18.7635ZM32.2188 22.1268L31.8241 22.4337C32.6842 23.5397 33.447 24.8929 34.1079 26.5005L34.5703 26.3104L35.0328 26.1202C34.3447 24.4466 33.5397 23.0107 32.6134 21.8198L32.2188 22.1268ZM34.5703 26.3104L34.1084 26.5017C34.6418 27.7893 35.1445 28.8343 35.6172 29.6286L36.0469 29.3729L36.4765 29.1171C36.0378 28.3801 35.5561 27.3835 35.0322 26.119L34.5703 26.3104ZM36.0469 29.3729L35.6246 29.6406C36.1471 30.4646 36.8318 31.0725 37.6779 31.444L37.8789 30.9861L38.0799 30.5283C37.4312 30.2435 36.8946 29.776 36.4691 29.1051L36.0469 29.3729ZM37.8789 30.9861L37.6779 31.444C38.5162 31.812 39.6345 31.9783 40.9961 31.9783V31.4783V30.9783C39.6963 30.9783 38.7364 30.8165 38.0799 30.5283L37.8789 30.9861ZM40.9961 31.4783V31.9783H41.7617V31.4783V30.9783H40.9961V31.4783ZM41.7617 31.4783H41.2617V39.9549H41.7617H42.2617V31.4783H41.7617ZM41.7617 39.9549V39.4549H40.9961V39.9549V40.4549H41.7617V39.9549ZM40.9961 39.9549V39.4549C38.8152 39.4549 37.0156 39.1505 35.5802 38.5625L35.3906 39.0252L35.2011 39.4879C36.7917 40.1395 38.7291 40.4549 40.9961 40.4549V39.9549ZM35.3906 39.0252L35.5802 38.5625C34.1655 37.983 32.9725 37.0013 32.0011 35.5963L31.5898 35.8807L31.1786 36.165C32.2489 37.7131 33.5897 38.8278 35.2011 39.4879L35.3906 39.0252ZM31.5898 35.8807L31.2239 35.54C30.2725 36.5618 29.2585 37.3552 28.183 37.9276L28.418 38.369L28.6529 38.8103C29.8379 38.1796 30.9384 37.3141 31.9558 36.2214L31.5898 35.8807ZM28.418 38.369L28.1886 37.9246C27.1163 38.4781 25.8307 38.8746 24.3228 39.1052L24.3984 39.5994L24.474 40.0937C26.0651 39.8503 27.4592 39.4265 28.6473 38.8133L28.418 38.369ZM24.3984 39.5994L24.322 39.1053C22.8245 39.3371 20.9651 39.4549 18.7383 39.4549V39.9549V40.4549C20.9958 40.4549 22.9099 40.3357 24.4749 40.0935L24.3984 39.5994ZM18.7383 39.9549V39.4549H12.0664V39.9549V40.4549H18.7383V39.9549ZM12.0664 39.9549H12.5664V31.4783H12.0664H11.5664V39.9549H12.0664ZM12.0664 31.4783V31.9783H18.7109V31.4783V30.9783H12.0664V31.4783ZM18.7109 31.4783V31.9783C21.512 31.9783 23.6762 31.7962 25.1774 31.4162L25.0547 30.9315L24.932 30.4468C23.5529 30.7959 21.488 30.9783 18.7109 30.9783V31.4783ZM25.0547 30.9315L25.1759 31.4165C25.9601 31.2205 26.6054 30.9032 27.0574 30.4286C27.52 29.9429 27.7422 29.3318 27.7422 28.6346H27.2422H26.7422C26.7422 29.104 26.5998 29.4591 26.3332 29.739C26.0561 30.03 25.6076 30.2778 24.9334 30.4464L25.0547 30.9315ZM27.2422 28.6346H27.7422C27.7422 28.2351 27.5595 27.8563 27.2989 27.5123C27.0349 27.1638 26.6564 26.8053 26.1825 26.4356L25.875 26.8299L25.5675 27.2241C26.0051 27.5655 26.3102 27.8632 26.5018 28.1162C26.697 28.3738 26.7422 28.5419 26.7422 28.6346H27.2422ZM25.875 26.8299L26.1912 26.4426C25.2765 25.6959 24.1366 24.8997 22.7757 24.0537L22.5117 24.4783L22.2478 24.903C23.5848 25.7341 24.687 26.5056 25.5588 27.2172L25.875 26.8299ZM22.5117 24.4783L22.7783 24.0553C21.4436 23.2143 20.0815 22.3824 18.6922 21.5598L18.4375 21.9901L18.1828 22.4203C19.5643 23.2383 20.9184 24.0653 22.2452 24.9014L22.5117 24.4783ZM18.4375 21.9901L18.6947 21.5613C17.3349 20.7454 16.189 20.0052 15.2547 19.3405L14.9648 19.7479L14.675 20.1553C15.6365 20.8395 16.8057 21.5941 18.1803 22.4188L18.4375 21.9901ZM14.9648 19.7479L15.2634 19.3467C14.5551 18.8197 14.0061 18.117 13.6188 17.2246L13.1602 17.4236L12.7015 17.6227C13.1528 18.6626 13.8069 19.5094 14.6663 20.149L14.9648 19.7479ZM13.1602 17.4236L13.6202 17.2277C13.2265 16.3034 13.0312 15.3582 13.0312 14.3885H12.5312H12.0312C12.0312 15.4969 12.2553 16.5751 12.7001 17.6196L13.1602 17.4236ZM12.5312 14.3885H13.0312C13.0312 13.3529 13.2596 12.4455 13.7053 11.6532L13.2695 11.408L12.8337 11.1629C12.2951 12.1206 12.0312 13.2001 12.0312 14.3885H12.5312ZM13.2695 11.408L13.7074 11.6493C14.1389 10.8662 14.8008 10.2938 15.7219 9.93199L15.5391 9.46661L15.3562 9.00124C14.2357 9.44147 13.3845 10.1633 12.8316 11.1667L13.2695 11.408ZM15.5391 9.46661L15.7279 9.92957L37.1107 1.20692L36.9219 0.743958L36.733 0.280995L15.3502 9.00365L15.5391 9.46661ZM36.9219 0.743958H36.4219V9.13849H36.9219H37.4219V0.743958H36.9219ZM36.9219 9.13849L36.734 8.67511L22.4333 14.472L22.6211 14.9354L22.8089 15.3987L37.1097 9.60187L36.9219 9.13849ZM40.6133 39.9549H40.1133V40.4549H40.6133V39.9549ZM40.6133 31.4783V30.9783H40.1133V31.4783H40.6133ZM48.5156 18.6268L48.3907 18.1426L47.9189 18.2644L48.0284 18.7392L48.5156 18.6268ZM56.1445 16.658L56.6342 16.5571L56.5282 16.0426L56.0196 16.1739L56.1445 16.658ZM56.9922 21.908L56.4955 21.9655L56.4961 21.9707L56.9922 21.908ZM52.9727 38.2322L52.6794 37.8273L52.6772 37.8289L52.9727 38.2322ZM41.2969 43.2908L41.6473 42.9342L41.2928 42.5858L40.9423 42.9383L41.2969 43.2908ZM45.9727 47.8846L45.6222 48.2412L45.9747 48.5875L46.3252 48.2392L45.9727 47.8846ZM50.5938 43.2908L50.9463 42.9363L50.5938 42.5858L50.2412 42.9362L50.5938 43.2908ZM55.4336 48.1033L55.7881 48.4559L56.1407 48.1013L55.7861 47.7488L55.4336 48.1033ZM50.5938 52.9705L50.2392 53.323L50.5937 53.6797L50.9483 53.3231L50.5938 52.9705ZM45.9727 48.3221L46.3273 47.9696L45.9747 47.615L45.6201 47.9675L45.9727 48.3221ZM41.2969 52.9705L40.9403 53.3211L41.2928 53.6796L41.6494 53.3251L41.2969 52.9705ZM36.5117 48.1033L36.1572 47.7508L35.8086 48.1013L36.1552 48.4539L36.5117 48.1033ZM46.4648 39.9549V39.4549H40.6133V39.9549V40.4549H46.4648V39.9549ZM40.6133 39.9549H41.1133V31.4783H40.6133H40.1133V39.9549H40.6133ZM40.6133 31.4783V31.9783H46.5195V31.4783V30.9783H40.6133V31.4783ZM46.5195 31.4783V31.9783C47.9198 31.9783 49.0146 31.5275 49.628 30.5051L49.1992 30.2479L48.7705 29.9906C48.3995 30.6089 47.7079 30.9783 46.5195 30.9783V31.4783ZM49.1992 30.2479L49.628 30.5051C50.1799 29.5853 50.4375 28.4406 50.4375 27.1033H49.9375H49.4375C49.4375 28.3181 49.203 29.2698 48.7705 29.9906L49.1992 30.2479ZM49.9375 27.1033H50.4375C50.4375 25.8229 50.2775 24.4211 49.9622 22.9003L49.4727 23.0018L48.9831 23.1033C49.2876 24.572 49.4375 25.9046 49.4375 27.1033H49.9375ZM49.4727 23.0018L49.9622 22.9003C49.6516 21.402 49.3318 19.94 49.0028 18.5143L48.5156 18.6268L48.0284 18.7392C48.3557 20.1573 48.6739 21.612 48.9831 23.1033L49.4727 23.0018ZM48.5156 18.6268L48.6406 19.1109L56.2695 17.1422L56.1445 16.658L56.0196 16.1739L48.3907 18.1426L48.5156 18.6268ZM56.1445 16.658L55.6548 16.759C56.0166 18.5133 56.2967 20.2488 56.4955 21.9655L56.9922 21.908L57.4889 21.8505C57.2866 20.1036 57.0017 18.3391 56.6342 16.5571L56.1445 16.658ZM56.9922 21.908L56.4961 21.9707C56.7125 23.6837 56.8203 25.3216 56.8203 26.8846H57.3203H57.8203C57.8203 25.2757 57.7094 23.5959 57.4883 21.8454L56.9922 21.908ZM57.3203 26.8846H56.8203C56.8203 29.3202 56.4979 31.4894 55.8616 33.3983L56.3359 33.5565L56.8103 33.7146C57.4865 31.686 57.8203 29.4073 57.8203 26.8846H57.3203ZM56.3359 33.5565L55.8616 33.3983C55.2363 35.2742 54.1754 36.7439 52.6794 37.8273L52.9727 38.2322L53.2659 38.6372C54.9418 37.4237 56.1231 35.7762 56.8103 33.7146L56.3359 33.5565ZM52.9727 38.2322L52.6772 37.8289C51.2248 38.8929 49.1731 39.4549 46.4648 39.4549V39.9549V40.4549C49.2982 40.4549 51.5851 39.8685 53.2681 38.6356L52.9727 38.2322ZM41.2969 43.2908L40.9465 43.6475L45.6222 48.2412L45.9727 47.8846L46.3231 47.5279L41.6473 42.9342L41.2969 43.2908ZM45.9727 47.8846L46.3252 48.2392L50.9463 43.6454L50.5938 43.2908L50.2412 42.9362L45.6201 47.53L45.9727 47.8846ZM50.5938 43.2908L50.2412 43.6454L55.081 48.4579L55.4336 48.1033L55.7861 47.7488L50.9463 42.9363L50.5938 43.2908ZM55.4336 48.1033L55.079 47.7508L50.2392 52.618L50.5938 52.9705L50.9483 53.3231L55.7881 48.4559L55.4336 48.1033ZM50.5938 52.9705L50.9483 52.618L46.3273 47.9696L45.9727 48.3221L45.6181 48.6746L50.2392 53.323L50.5938 52.9705ZM45.9727 48.3221L45.6201 47.9675L40.9444 52.6159L41.2969 52.9705L41.6494 53.3251L46.3252 48.6767L45.9727 48.3221ZM41.2969 52.9705L41.6534 52.62L36.8683 47.7528L36.5117 48.1033L36.1552 48.4539L40.9403 53.3211L41.2969 52.9705ZM36.5117 48.1033L36.8663 48.4559L41.6514 43.6434L41.2969 43.2908L40.9423 42.9383L36.1572 47.7508L36.5117 48.1033ZM63.1172 1.48224V0.982239H62.6172V1.48224H63.1172ZM71.0195 1.48224H71.5195V0.982239H71.0195V1.48224ZM71.7305 30.2479L71.295 30.494L71.3017 30.5051L71.7305 30.2479ZM75.7773 31.4783H76.2773V30.9783H75.7773V31.4783ZM75.7773 39.9549V40.4549H76.2773V39.9549H75.7773ZM65.9609 36.7283L65.5845 37.0574L65.5858 37.0589L65.9609 36.7283ZM63.1172 1.48224V1.98224H71.0195V1.48224V0.982239H63.1172V1.48224ZM71.0195 1.48224H70.5195V26.2557H71.0195H71.5195V1.48224H71.0195ZM71.0195 26.2557H70.5195C70.5195 28.1005 70.7556 29.5392 71.2952 30.4939L71.7305 30.2479L72.1658 30.0018C71.7574 29.2794 71.5195 28.0567 71.5195 26.2557H71.0195ZM71.7305 30.2479L71.3017 30.5051C71.9394 31.5679 73.3118 31.9783 75.0938 31.9783V31.4783V30.9783C73.3757 30.9783 72.5059 30.5684 72.1592 29.9906L71.7305 30.2479ZM75.0938 31.4783V31.9783H75.7773V31.4783V30.9783H75.0938V31.4783ZM75.7773 31.4783H75.2773V39.9549H75.7773H76.2773V31.4783H75.7773ZM75.7773 39.9549V39.4549H75.0938V39.9549V40.4549H75.7773V39.9549ZM75.0938 39.9549V39.4549C70.977 39.4549 68.0999 38.3991 66.336 36.3977L65.9609 36.7283L65.5858 37.0589C67.6136 39.3597 70.8251 40.4549 75.0938 40.4549V39.9549ZM65.9609 36.7283L66.3374 36.3993C64.5522 34.3566 63.6172 31.2688 63.6172 27.0486H63.1172H62.6172C62.6172 31.3962 63.578 34.7615 65.5845 37.0574L65.9609 36.7283ZM63.1172 27.0486H63.6172V1.48224H63.1172H62.6172V27.0486H63.1172ZM83.7344 36.4549L84.0237 36.0471L83.6844 35.8064L83.386 36.0963L83.7344 36.4549ZM81.7656 38.1776L81.4572 37.784L81.7656 38.1776ZM79.3594 39.4627L79.193 38.9912L79.19 38.9923L79.3594 39.4627ZM74.6836 39.9549H74.1836V40.4549H74.6836V39.9549ZM74.6836 31.4783V30.9783H74.1836V31.4783H74.6836ZM78.0195 30.4393L77.6659 30.0857L77.6613 30.0905L78.0195 30.4393ZM80.0703 27.7596L80.4959 28.022L80.4978 28.0189L80.0703 27.7596ZM82.2031 24.2596L81.7794 23.994L81.7766 23.9986L82.2031 24.2596ZM84.7461 20.7869L84.3656 20.4626L84.3651 20.4631L84.7461 20.7869ZM88.0273 18.0799L87.7834 17.6434L88.0273 18.0799ZM102.383 23.0838L101.936 23.3092L101.938 23.3128L102.383 23.0838ZM102.684 34.869L102.221 34.6783L102.22 34.6808L102.684 34.869ZM99.4297 39.0526L99.7188 39.4605L99.7198 39.4598L99.4297 39.0526ZM90.6523 25.8182L90.9736 26.2013L90.9748 26.2003L90.6523 25.8182ZM89.1758 27.5135L88.7544 27.2443L89.1758 27.5135ZM88.1367 29.3455L87.6866 29.1277L87.5224 29.4673L87.8037 29.7185L88.1367 29.3455ZM89.5859 30.5213L89.2937 30.9271L89.3013 30.9324L89.5859 30.5213ZM90.8984 31.3416L90.659 31.7806L90.6599 31.781L90.8984 31.3416ZM92.6211 32.0526L92.4998 32.5376L92.6211 32.0526ZM95.4102 26.2557L95.0311 26.5818L95.035 26.5862L95.4102 26.2557ZM93.9336 40.5838V40.0838C92.0937 40.0838 90.3834 39.6902 88.7959 38.9051L88.5742 39.3533L88.3526 39.8015C90.0827 40.6571 91.9454 41.0838 93.9336 41.0838V40.5838ZM88.5742 39.3533L88.7959 38.9051C87.1615 38.0969 85.5707 37.1444 84.0237 36.0471L83.7344 36.4549L83.4451 36.8627C85.0334 37.9893 86.6693 38.9691 88.3526 39.8015L88.5742 39.3533ZM83.7344 36.4549L83.386 36.0963C82.7602 36.7042 82.1172 37.2667 81.4572 37.784L81.7656 38.1776L82.0741 38.5711C82.763 38.0311 83.4325 37.4452 84.0828 36.8135L83.7344 36.4549ZM81.7656 38.1776L81.4572 37.784C80.8314 38.2745 80.079 38.6785 79.193 38.9912L79.3594 39.4627L79.5258 39.9342C80.4992 39.5907 81.3509 39.1379 82.0741 38.5711L81.7656 38.1776ZM79.3594 39.4627L79.19 38.9923C78.3514 39.2942 77.2563 39.4549 75.8867 39.4549V39.9549V40.4549C77.3245 40.4549 78.5445 40.2875 79.5287 39.9332L79.3594 39.4627ZM75.8867 39.9549V39.4549H74.6836V39.9549V40.4549H75.8867V39.9549ZM74.6836 39.9549H75.1836V31.4783H74.6836H74.1836V39.9549H74.6836ZM74.6836 31.4783V31.9783H75.75V31.4783V30.9783H74.6836V31.4783ZM75.75 31.4783V31.9783C76.7444 31.9783 77.6248 31.5614 78.3778 30.7881L78.0195 30.4393L77.6613 30.0905C77.0653 30.7026 76.4327 30.9783 75.75 30.9783V31.4783ZM78.0195 30.4393L78.3731 30.7928C79.1002 30.0657 79.807 29.1392 80.4959 28.022L80.0703 27.7596L79.6447 27.4971C78.9847 28.5674 78.3242 29.4275 77.666 30.0857L78.0195 30.4393ZM80.0703 27.7596L80.4978 28.0189C81.1719 26.9075 81.8825 25.7414 82.6296 24.5206L82.2031 24.2596L81.7766 23.9986C81.0289 25.2205 80.3177 26.3877 79.6428 27.5003L80.0703 27.7596ZM82.2031 24.2596L82.6268 24.5252C83.3796 23.3241 84.2131 22.1861 85.1271 21.1108L84.7461 20.7869L84.3651 20.4631C83.4198 21.5753 82.5579 22.7523 81.7795 23.994L82.2031 24.2596ZM84.7461 20.7869L85.1266 21.1113C86.0371 20.0432 87.085 19.1793 88.2713 18.5164L88.0273 18.0799L87.7834 17.6434C86.4905 18.3659 85.3509 19.3067 84.3656 20.4626L84.7461 20.7869ZM88.0273 18.0799L88.2713 18.5164C89.4254 17.8714 90.779 17.5408 92.3477 17.5408V17.0408V16.5408C90.635 16.5408 89.1084 16.903 87.7834 17.6434L88.0273 18.0799ZM92.3477 17.0408V17.5408C94.6176 17.5408 96.5523 18.0764 98.1731 19.1282L98.4453 18.7088L98.7175 18.2894C96.9112 17.1172 94.7809 16.5408 92.3477 16.5408V17.0408ZM98.4453 18.7088L98.1731 19.1282C99.8133 20.1926 101.065 21.5843 101.937 23.3092L102.383 23.0838L102.829 22.8584C101.877 20.9739 100.504 19.449 98.7175 18.2894L98.4453 18.7088ZM102.383 23.0838L101.938 23.3128C102.83 25.0443 103.277 26.916 103.277 28.9354H103.777H104.277C104.277 26.762 103.795 24.7327 102.827 22.8548L102.383 23.0838ZM103.777 28.9354H103.277C103.277 31.0668 102.922 32.9786 102.221 34.6783L102.684 34.869L103.146 35.0596C103.903 33.2228 104.277 31.1789 104.277 28.9354H103.777ZM102.684 34.869L102.22 34.6808C101.543 36.3479 100.516 37.6645 99.1396 38.6453L99.4297 39.0526L99.7198 39.4598C101.26 38.3625 102.402 36.89 103.147 35.0571L102.684 34.869ZM99.4297 39.0526L99.1405 38.6446C97.8046 39.5916 96.081 40.0838 93.9336 40.0838V40.5838V41.0838C96.2341 41.0838 98.1745 40.5552 99.7188 39.4605L99.4297 39.0526ZM92.6211 25.0799V24.5799C91.7681 24.5799 90.9989 24.8716 90.3299 25.436L90.6523 25.8182L90.9748 26.2003C91.4725 25.7804 92.0158 25.5799 92.6211 25.5799V25.0799ZM90.6523 25.8182L90.331 25.4351C89.7249 25.9435 89.1995 26.5476 88.7544 27.2443L89.1758 27.5135L89.5971 27.7827C89.9906 27.1669 90.4496 26.6408 90.9736 26.2013L90.6523 25.8182ZM89.1758 27.5135L88.7544 27.2443C88.327 27.9133 87.9704 28.5413 87.6866 29.1277L88.1367 29.3455L88.5868 29.5633C88.8499 29.0195 89.186 28.4261 89.5971 27.7827L89.1758 27.5135ZM88.1367 29.3455L87.8037 29.7185C88.3245 30.1834 88.8212 30.5868 89.2938 30.9271L89.5859 30.5213L89.8781 30.1155C89.4392 29.7995 88.9698 29.4191 88.4697 28.9725L88.1367 29.3455ZM89.5859 30.5213L89.3013 30.9324C89.7863 31.2681 90.239 31.5515 90.659 31.7806L90.8984 31.3416L91.1379 30.9027C90.7558 30.6942 90.3335 30.4307 89.8705 30.1102L89.5859 30.5213ZM90.8984 31.3416L90.6599 31.781C91.322 32.1405 91.9364 32.3968 92.4998 32.5376L92.6211 32.0526L92.7424 31.5675C92.2849 31.4531 91.7509 31.2355 91.137 30.9022L90.8984 31.3416ZM92.6211 32.0526L92.4998 32.5376C93.0383 32.6723 93.5359 32.744 93.9883 32.744V32.244V31.744C93.6385 31.744 93.2247 31.6881 92.7424 31.5675L92.6211 32.0526ZM93.9883 32.244V32.744C94.4989 32.744 94.9668 32.6448 95.3711 32.4222C95.779 32.1975 96.0939 31.8626 96.3175 31.4378L95.875 31.2049L95.4325 30.972C95.2915 31.2399 95.1097 31.4245 94.8887 31.5462C94.664 31.6699 94.3708 31.744 93.9883 31.744V32.244ZM95.875 31.2049L96.3175 31.4378C96.7217 30.6698 96.9219 29.8328 96.9219 28.9354H96.4219H95.9219C95.9219 29.6786 95.7575 30.3546 95.4325 30.972L95.875 31.2049ZM96.4219 28.9354H96.9219C96.9219 27.7929 96.5403 26.7821 95.7853 25.9252L95.4102 26.2557L95.035 26.5862C95.629 27.2605 95.9219 28.0362 95.9219 28.9354H96.4219ZM95.4102 26.2557L95.7892 25.9296C95.0053 25.0186 93.928 24.5799 92.6211 24.5799V25.0799V25.5799C93.684 25.5799 94.4661 25.9251 95.0311 26.5818L95.4102 26.2557Z" fill="url(#paint1_linear_944_3433)" style="" mask="url(#path-1-outside-1_944_3433)"/>
<defs>
<linearGradient id="paint0_linear_944_3433" x1="223.887" y1="25.9549" x2="-121.113" y2="25.9549" gradientUnits="userSpaceOnUse">
<stop stop-color="#1B80E5" style="stop-color:#1B80E5;stop-color:color(display-p3 0.1056 0.5011 0.8966);stop-opacity:1;"/>
<stop offset="1" stop-color="#392DDE" style="stop-color:#392DDE;stop-color:color(display-p3 0.2227 0.1765 0.8697);stop-opacity:1;"/>
</linearGradient>
<linearGradient id="paint1_linear_944_3433" x1="223.887" y1="25.9549" x2="-121.113" y2="25.9549" gradientUnits="userSpaceOnUse">
<stop stop-color="#1B80E5" style="stop-color:#1B80E5;stop-color:color(display-p3 0.1056 0.5011 0.8966);stop-opacity:1;"/>
<stop offset="1" stop-color="#392DDE" style="stop-color:#392DDE;stop-color:color(display-p3 0.2227 0.1765 0.8697);stop-opacity:1;"/>
</linearGradient>
</defs>
</svg>
