<svg width="165" height="85" viewBox="0 0 165 85" fill="none" xmlns="http://www.w3.org/2000/svg">
<mask id="path-1-outside-1_1329_1884" maskUnits="userSpaceOnUse" x="-0.535156" y="-0.894882" width="165" height="86" fill="black">
<rect fill="white" x="-0.535156" y="-0.894882" width="165" height="86"/>
<path d="M1 2.64809H13.418V41.5778C13.418 44.4424 13.7904 46.5335 14.5352 47.8512C15.3086 49.1403 17.0703 49.7848 19.8203 49.7848H20.8945V63.1051H19.8203C13.2318 63.1051 8.44792 61.415 5.46875 58.0348C2.48958 54.626 1 49.5556 1 42.8239V2.64809ZM35.7617 23.7887C38.1107 25.1637 40.1589 26.4241 41.9062 27.57C43.6823 28.6871 45.2292 29.7757 46.5469 30.8356C47.8646 31.8668 48.9961 32.9267 49.9414 34.0153C50.9154 35.1038 51.7604 36.264 52.4766 37.4957C53.2214 38.7275 53.9089 40.1168 54.5391 41.6637C55.3698 43.6689 56.1432 45.2731 56.8594 46.4762C57.6042 47.6507 58.5638 48.4957 59.7383 49.0114C60.9128 49.527 62.5456 49.7848 64.6367 49.7848H65.8398V63.1051H64.6367C61.1419 63.1051 58.2057 62.6181 55.8281 61.6442C53.4505 60.6702 51.4596 59.0231 49.8555 56.7028C48.3086 58.3642 46.6471 59.6676 44.8711 60.6129C43.0951 61.5296 40.9896 62.1741 38.5547 62.5465C36.1484 62.9189 33.1836 63.1051 29.6602 63.1051H19.1758V49.7848H29.6172C32.5391 49.7848 34.9883 49.6702 36.9648 49.4411C38.9701 49.1832 40.474 48.7392 41.4766 48.109C42.5078 47.4502 43.0234 46.5192 43.0234 45.3161C43.0234 44.7145 42.5508 43.984 41.6055 43.1246C40.6888 42.2653 39.4714 41.3343 37.9531 40.3317C36.4635 39.3004 34.8451 38.2692 33.0977 37.2379C31.3503 36.178 29.6458 35.1468 27.9844 34.1442C26.3516 33.1416 24.9336 32.2106 23.7305 31.3512C22.4987 30.4345 21.5534 29.2171 20.8945 27.6989C20.2357 26.152 19.9062 24.5621 19.9062 22.9293C19.9062 21.1819 20.293 19.6207 21.0664 18.2457C21.8398 16.8421 23.0286 15.8252 24.6328 15.195L58.2344 1.48793V14.6793L35.7617 23.7887ZM64.0352 49.7848H67.4727V63.1051H64.0352V49.7848ZM79.7188 68.3473L87.3242 75.9098L79.7188 83.5582L72.1133 75.9098L79.7188 68.3473ZM65.1094 68.3473L72.8008 75.9098L65.1094 83.5582L57.5898 75.9098L65.1094 68.3473ZM73.2305 63.1051H66.4414V49.7848H73.3164C75.3503 49.7848 76.7539 49.1403 77.5273 47.8512C78.3008 46.5621 78.6875 44.915 78.6875 42.9098C78.6875 40.9619 78.444 38.8135 77.957 36.4645C77.4701 34.1155 76.9688 31.8239 76.4531 29.5895L88.4414 26.4957C89.0143 29.2744 89.4583 32.0244 89.7734 34.7457C90.1172 37.4671 90.2891 40.0739 90.2891 42.5661C90.2891 46.4619 89.7734 49.9567 88.7422 53.0504C87.7109 56.1442 85.9492 58.5934 83.457 60.3981C80.9935 62.2028 77.5846 63.1051 73.2305 63.1051ZM99.3984 2.64809H111.816V41.5778C111.816 44.4424 112.189 46.5335 112.934 47.8512C113.707 49.1403 115.469 49.7848 118.219 49.7848H119.293V63.1051H118.219C111.63 63.1051 106.846 61.415 103.867 58.0348C100.888 54.626 99.3984 49.5556 99.3984 42.8239V2.64809ZM145.762 39.7301C144.616 39.7301 143.585 40.1168 142.668 40.8903C141.78 41.6351 141.007 42.5231 140.348 43.5543C139.689 44.5856 139.145 45.5452 138.715 46.4332C139.517 47.1494 140.276 47.7653 140.992 48.2809C141.737 48.7965 142.424 49.2262 143.055 49.57C144.057 50.1142 144.96 50.4866 145.762 50.6871C146.564 50.8877 147.28 50.9879 147.91 50.9879C149.314 50.9879 150.302 50.4437 150.875 49.3551C151.448 48.2666 151.734 47.0778 151.734 45.7887C151.734 44.1845 151.204 42.7809 150.145 41.5778C149.085 40.346 147.624 39.7301 145.762 39.7301ZM147.824 64.0934C145.819 64.0934 143.9 63.7926 142.066 63.1911C140.262 62.6181 138.5 61.8447 136.781 60.8707C135.091 59.8681 133.43 58.7796 131.797 57.6051C130.794 58.5791 129.763 59.4814 128.703 60.3121C127.643 61.1429 126.383 61.8161 124.922 62.3317C123.49 62.8473 121.671 63.1051 119.465 63.1051H117.574V49.7848H119.25C120.568 49.7848 121.757 49.2405 122.816 48.152C123.905 47.0635 124.979 45.6598 126.039 43.9411C127.099 42.1937 128.216 40.3603 129.391 38.4411C130.594 36.5218 131.926 34.7028 133.387 32.984C134.876 31.2366 136.595 29.8187 138.543 28.7301C140.491 27.6416 142.754 27.0973 145.332 27.0973C149.027 27.0973 152.221 27.971 154.914 29.7184C157.607 31.4658 159.669 33.7575 161.102 36.5934C162.562 39.4293 163.293 42.4944 163.293 45.7887C163.293 49.2262 162.72 52.3343 161.574 55.1129C160.457 57.8629 158.753 60.0543 156.461 61.6871C154.198 63.2913 151.319 64.0934 147.824 64.0934Z"/>
</mask>
<path d="M1 2.64809H13.418V41.5778C13.418 44.4424 13.7904 46.5335 14.5352 47.8512C15.3086 49.1403 17.0703 49.7848 19.8203 49.7848H20.8945V63.1051H19.8203C13.2318 63.1051 8.44792 61.415 5.46875 58.0348C2.48958 54.626 1 49.5556 1 42.8239V2.64809ZM35.7617 23.7887C38.1107 25.1637 40.1589 26.4241 41.9062 27.57C43.6823 28.6871 45.2292 29.7757 46.5469 30.8356C47.8646 31.8668 48.9961 32.9267 49.9414 34.0153C50.9154 35.1038 51.7604 36.264 52.4766 37.4957C53.2214 38.7275 53.9089 40.1168 54.5391 41.6637C55.3698 43.6689 56.1432 45.2731 56.8594 46.4762C57.6042 47.6507 58.5638 48.4957 59.7383 49.0114C60.9128 49.527 62.5456 49.7848 64.6367 49.7848H65.8398V63.1051H64.6367C61.1419 63.1051 58.2057 62.6181 55.8281 61.6442C53.4505 60.6702 51.4596 59.0231 49.8555 56.7028C48.3086 58.3642 46.6471 59.6676 44.8711 60.6129C43.0951 61.5296 40.9896 62.1741 38.5547 62.5465C36.1484 62.9189 33.1836 63.1051 29.6602 63.1051H19.1758V49.7848H29.6172C32.5391 49.7848 34.9883 49.6702 36.9648 49.4411C38.9701 49.1832 40.474 48.7392 41.4766 48.109C42.5078 47.4502 43.0234 46.5192 43.0234 45.3161C43.0234 44.7145 42.5508 43.984 41.6055 43.1246C40.6888 42.2653 39.4714 41.3343 37.9531 40.3317C36.4635 39.3004 34.8451 38.2692 33.0977 37.2379C31.3503 36.178 29.6458 35.1468 27.9844 34.1442C26.3516 33.1416 24.9336 32.2106 23.7305 31.3512C22.4987 30.4345 21.5534 29.2171 20.8945 27.6989C20.2357 26.152 19.9062 24.5621 19.9062 22.9293C19.9062 21.1819 20.293 19.6207 21.0664 18.2457C21.8398 16.8421 23.0286 15.8252 24.6328 15.195L58.2344 1.48793V14.6793L35.7617 23.7887ZM64.0352 49.7848H67.4727V63.1051H64.0352V49.7848ZM79.7188 68.3473L87.3242 75.9098L79.7188 83.5582L72.1133 75.9098L79.7188 68.3473ZM65.1094 68.3473L72.8008 75.9098L65.1094 83.5582L57.5898 75.9098L65.1094 68.3473ZM73.2305 63.1051H66.4414V49.7848H73.3164C75.3503 49.7848 76.7539 49.1403 77.5273 47.8512C78.3008 46.5621 78.6875 44.915 78.6875 42.9098C78.6875 40.9619 78.444 38.8135 77.957 36.4645C77.4701 34.1155 76.9688 31.8239 76.4531 29.5895L88.4414 26.4957C89.0143 29.2744 89.4583 32.0244 89.7734 34.7457C90.1172 37.4671 90.2891 40.0739 90.2891 42.5661C90.2891 46.4619 89.7734 49.9567 88.7422 53.0504C87.7109 56.1442 85.9492 58.5934 83.457 60.3981C80.9935 62.2028 77.5846 63.1051 73.2305 63.1051ZM99.3984 2.64809H111.816V41.5778C111.816 44.4424 112.189 46.5335 112.934 47.8512C113.707 49.1403 115.469 49.7848 118.219 49.7848H119.293V63.1051H118.219C111.63 63.1051 106.846 61.415 103.867 58.0348C100.888 54.626 99.3984 49.5556 99.3984 42.8239V2.64809ZM145.762 39.7301C144.616 39.7301 143.585 40.1168 142.668 40.8903C141.78 41.6351 141.007 42.5231 140.348 43.5543C139.689 44.5856 139.145 45.5452 138.715 46.4332C139.517 47.1494 140.276 47.7653 140.992 48.2809C141.737 48.7965 142.424 49.2262 143.055 49.57C144.057 50.1142 144.96 50.4866 145.762 50.6871C146.564 50.8877 147.28 50.9879 147.91 50.9879C149.314 50.9879 150.302 50.4437 150.875 49.3551C151.448 48.2666 151.734 47.0778 151.734 45.7887C151.734 44.1845 151.204 42.7809 150.145 41.5778C149.085 40.346 147.624 39.7301 145.762 39.7301ZM147.824 64.0934C145.819 64.0934 143.9 63.7926 142.066 63.1911C140.262 62.6181 138.5 61.8447 136.781 60.8707C135.091 59.8681 133.43 58.7796 131.797 57.6051C130.794 58.5791 129.763 59.4814 128.703 60.3121C127.643 61.1429 126.383 61.8161 124.922 62.3317C123.49 62.8473 121.671 63.1051 119.465 63.1051H117.574V49.7848H119.25C120.568 49.7848 121.757 49.2405 122.816 48.152C123.905 47.0635 124.979 45.6598 126.039 43.9411C127.099 42.1937 128.216 40.3603 129.391 38.4411C130.594 36.5218 131.926 34.7028 133.387 32.984C134.876 31.2366 136.595 29.8187 138.543 28.7301C140.491 27.6416 142.754 27.0973 145.332 27.0973C149.027 27.0973 152.221 27.971 154.914 29.7184C157.607 31.4658 159.669 33.7575 161.102 36.5934C162.562 39.4293 163.293 42.4944 163.293 45.7887C163.293 49.2262 162.72 52.3343 161.574 55.1129C160.457 57.8629 158.753 60.0543 156.461 61.6871C154.198 63.2913 151.319 64.0934 147.824 64.0934Z" fill="url(#paint0_linear_1329_1884)" style=""/>
<path d="M1 2.64809V1.64809H0V2.64809H1ZM13.418 2.64809H14.418V1.64809H13.418V2.64809ZM14.5352 47.8512L13.6646 48.3433L13.671 48.3546L13.6777 48.3657L14.5352 47.8512ZM20.8945 49.7848H21.8945V48.7848H20.8945V49.7848ZM20.8945 63.1051V64.1051H21.8945V63.1051H20.8945ZM5.46875 58.0348L4.71577 58.6929L4.71854 58.696L5.46875 58.0348ZM1 2.64809V3.64809H13.418V2.64809V1.64809H1V2.64809ZM13.418 2.64809H12.418V41.5778H13.418H14.418V2.64809H13.418ZM13.418 41.5778H12.418C12.418 44.4861 12.7885 46.7933 13.6646 48.3433L14.5352 47.8512L15.4057 47.3592C14.7922 46.2737 14.418 44.3986 14.418 41.5778H13.418ZM14.5352 47.8512L13.6777 48.3657C14.7421 50.1398 17.0064 50.7848 19.8203 50.7848V49.7848V48.7848C17.1342 48.7848 15.8751 48.1408 15.3926 47.3367L14.5352 47.8512ZM19.8203 49.7848V50.7848H20.8945V49.7848V48.7848H19.8203V49.7848ZM20.8945 49.7848H19.8945V63.1051H20.8945H21.8945V49.7848H20.8945ZM20.8945 63.1051V62.1051H19.8203V63.1051V64.1051H20.8945V63.1051ZM19.8203 63.1051V62.1051C13.3837 62.1051 8.93422 60.4544 6.21896 57.3736L5.46875 58.0348L4.71854 58.696C7.96161 62.3756 13.0798 64.1051 19.8203 64.1051V63.1051ZM5.46875 58.0348L6.22172 57.3767C3.4638 54.2211 2 49.4282 2 42.8239H1H0C0 49.683 1.51537 55.0309 4.71578 58.6929L5.46875 58.0348ZM1 42.8239H2V2.64809H1H0V42.8239H1ZM35.7617 23.7887L35.3861 22.862L33.503 23.6253L35.2565 24.6517L35.7617 23.7887ZM41.9062 27.57L41.3579 28.4062L41.3658 28.4114L41.3738 28.4164L41.9062 27.57ZM46.5469 30.8356L45.9201 31.6149L45.9306 31.6231L46.5469 30.8356ZM49.9414 34.0153L49.1864 34.671L49.1912 34.6766L49.1962 34.6821L49.9414 34.0153ZM52.4766 37.4957L51.6121 37.9984L51.6164 38.0058L51.6208 38.0132L52.4766 37.4957ZM54.5391 41.6637L53.613 42.041L53.6152 42.0465L54.5391 41.6637ZM56.8594 46.4762L56.0001 46.9877L56.0073 46.9998L56.0149 47.0118L56.8594 46.4762ZM65.8398 49.7848H66.8398V48.7848H65.8398V49.7848ZM65.8398 63.1051V64.1051H66.8398V63.1051H65.8398ZM55.8281 61.6442L55.4491 62.5695L55.8281 61.6442ZM49.8555 56.7028L50.678 56.1341L49.9709 55.1113L49.1236 56.0214L49.8555 56.7028ZM44.8711 60.6129L45.3298 61.5016L45.3409 61.4957L44.8711 60.6129ZM38.5547 62.5465L38.4035 61.558L38.4017 61.5583L38.5547 62.5465ZM19.1758 63.1051H18.1758V64.1051H19.1758V63.1051ZM19.1758 49.7848V48.7848H18.1758V49.7848H19.1758ZM36.9648 49.4411L37.08 50.4345L37.0924 50.4329L36.9648 49.4411ZM41.4766 48.109L42.0087 48.9557L42.015 48.9517L41.4766 48.109ZM41.6055 43.1246L40.9215 43.8542L40.9271 43.8594L40.9328 43.8646L41.6055 43.1246ZM37.9531 40.3317L37.3839 41.1539L37.3929 41.1601L37.4021 41.1661L37.9531 40.3317ZM33.0977 37.2379L32.579 38.093L32.5894 38.0991L33.0977 37.2379ZM27.9844 34.1442L27.4611 34.9964L27.4677 35.0004L27.9844 34.1442ZM23.7305 31.3512L23.1335 32.1534L23.1413 32.1593L23.1492 32.1649L23.7305 31.3512ZM20.8945 27.6989L19.9745 28.0907L19.9772 28.097L20.8945 27.6989ZM21.0664 18.2457L21.938 18.736L21.9422 18.7283L21.0664 18.2457ZM24.6328 15.195L24.9985 16.1258L25.0105 16.1209L24.6328 15.195ZM58.2344 1.48793H59.2344V-6.69756e-07L57.8567 0.562007L58.2344 1.48793ZM58.2344 14.6793L58.61 15.6061L59.2344 15.353V14.6793H58.2344ZM35.7617 23.7887L35.2565 24.6517C37.595 26.0206 39.6281 27.2719 41.3579 28.4062L41.9062 27.57L42.4546 26.7337C40.6896 25.5763 38.6264 24.3069 36.2669 22.9257L35.7617 23.7887ZM41.9062 27.57L41.3738 28.4164C43.1246 29.5177 44.6387 30.5841 45.9201 31.6148L46.5469 30.8356L47.1736 30.0564C45.8197 28.9673 44.24 27.8566 42.4387 26.7235L41.9062 27.57ZM46.5469 30.8356L45.9306 31.6231C47.2057 32.6211 48.289 33.6376 49.1864 34.671L49.9414 34.0153L50.6964 33.3596C49.7032 32.2158 48.5234 31.1126 47.1632 30.0481L46.5469 30.8356ZM49.9414 34.0153L49.1962 34.6821C50.126 35.7213 50.9308 36.8267 51.6121 37.9984L52.4766 37.4957L53.3411 36.9931C52.59 35.7013 51.7047 34.4863 50.6866 33.3485L49.9414 34.0153ZM52.4766 37.4957L51.6208 38.0132C52.3346 39.1937 52.9995 40.5351 53.613 42.041L54.5391 41.6637L55.4652 41.2864C54.8183 39.6986 54.1081 38.2613 53.3323 36.9783L52.4766 37.4957ZM54.5391 41.6637L53.6152 42.0465C54.4555 44.0748 55.2498 45.7273 56.0001 46.9877L56.8594 46.4762L57.7187 45.9647C57.0366 44.8189 56.2841 43.2631 55.4629 41.281L54.5391 41.6637ZM56.8594 46.4762L56.0149 47.0118C56.8567 48.3393 57.9644 49.3247 59.3363 49.927L59.7383 49.0114L60.1403 48.0957C59.1632 47.6668 58.3516 46.9621 57.7039 45.9407L56.8594 46.4762ZM59.7383 49.0114L59.3363 49.927C60.6926 50.5225 62.4838 50.7848 64.6367 50.7848V49.7848V48.7848C62.6073 48.7848 61.1329 48.5315 60.1403 48.0957L59.7383 49.0114ZM64.6367 49.7848V50.7848H65.8398V49.7848V48.7848H64.6367V49.7848ZM65.8398 49.7848H64.8398V63.1051H65.8398H66.8398V49.7848H65.8398ZM65.8398 63.1051V62.1051H64.6367V63.1051V64.1051H65.8398V63.1051ZM64.6367 63.1051V62.1051C61.228 62.1051 58.4296 61.6292 56.2072 60.7188L55.8281 61.6442L55.4491 62.5695C57.9818 63.6071 61.0558 64.1051 64.6367 64.1051V63.1051ZM55.8281 61.6442L56.2072 60.7188C54.0263 59.8254 52.1832 58.3113 50.678 56.1341L49.8555 56.7028L49.0329 57.2715C50.736 59.7349 52.8748 61.515 55.4491 62.5695L55.8281 61.6442ZM49.8555 56.7028L49.1236 56.0214C47.6427 57.6119 46.0677 58.8432 44.4012 59.7302L44.8711 60.6129L45.3409 61.4957C47.2266 60.492 48.9745 59.1165 50.5874 57.3842L49.8555 56.7028ZM44.8711 60.6129L44.4125 59.7243C42.7522 60.5812 40.7551 61.1984 38.4035 61.558L38.5547 62.5465L38.7059 63.535C41.224 63.1499 43.4379 62.478 45.3297 61.5016L44.8711 60.6129ZM38.5547 62.5465L38.4017 61.5583C36.063 61.9202 33.1529 62.1051 29.6602 62.1051V63.1051V64.1051C33.2143 64.1051 36.2339 63.9176 38.7076 63.5348L38.5547 62.5465ZM29.6602 63.1051V62.1051H19.1758V63.1051V64.1051H29.6602V63.1051ZM19.1758 63.1051H20.1758V49.7848H19.1758H18.1758V63.1051H19.1758ZM19.1758 49.7848V50.7848H29.6172V49.7848V48.7848H19.1758V49.7848ZM29.6172 49.7848V50.7848C32.5615 50.7848 35.0521 50.6695 37.08 50.4344L36.9648 49.4411L36.8497 48.4477C34.9245 48.6709 32.5166 48.7848 29.6172 48.7848V49.7848ZM36.9648 49.4411L37.0924 50.4329C39.1535 50.1679 40.8257 49.6993 42.0087 48.9557L41.4766 48.109L40.9444 47.2624C40.1222 47.7792 38.7866 48.1986 36.8373 48.4492L36.9648 49.4411ZM41.4766 48.109L42.015 48.9517C43.3278 48.113 44.0234 46.8675 44.0234 45.3161H43.0234H42.0234C42.0234 46.1709 41.6878 46.7874 40.9382 47.2663L41.4766 48.109ZM43.0234 45.3161H44.0234C44.0234 44.7545 43.8052 44.2323 43.5085 43.7738C43.209 43.3108 42.7878 42.848 42.2781 42.3847L41.6055 43.1246L40.9328 43.8646C41.3684 44.2606 41.6563 44.5928 41.8294 44.8603C42.0053 45.1322 42.0234 45.276 42.0234 45.3161H43.0234ZM41.6055 43.1246L42.2894 42.3951C41.3177 41.4841 40.0506 40.5185 38.5042 39.4972L37.9531 40.3317L37.4021 41.1661C38.8921 42.1501 40.0599 43.0464 40.9215 43.8542L41.6055 43.1246ZM37.9531 40.3317L38.5223 39.5095C37.0107 38.463 35.3717 37.4188 33.6059 36.3767L33.0977 37.2379L32.5894 38.0991C34.3184 39.1196 35.9164 40.1379 37.3839 41.1539L37.9531 40.3317ZM33.0977 37.2379L33.6163 36.3829C31.8683 35.3227 30.1632 34.291 28.501 33.288L27.9844 34.1442L27.4677 35.0004C29.1285 36.0026 30.8323 37.0334 32.579 38.0929L33.0977 37.2379ZM27.9844 34.1442L28.5076 33.292C26.8892 32.2982 25.4914 31.3801 24.3117 30.5375L23.7305 31.3512L23.1492 32.1649C24.3758 33.0411 25.814 33.9849 27.4611 34.9964L27.9844 34.1442ZM23.7305 31.3512L24.3275 30.549C23.2469 29.7448 22.4067 28.6715 21.8119 27.3008L20.8945 27.6989L19.9772 28.097C20.7001 29.7627 21.7505 31.1243 23.1335 32.1534L23.7305 31.3512ZM20.8945 27.6989L21.8146 27.307C21.2069 25.8803 20.9062 24.4234 20.9062 22.9293H19.9062H18.9062C18.9062 24.7009 19.2645 26.4237 19.9745 28.0907L20.8945 27.6989ZM19.9062 22.9293H20.9062C20.9062 21.3348 21.2575 19.9457 21.938 18.736L21.0664 18.2457L20.1948 17.7555C19.3284 19.2958 18.9062 21.0291 18.9062 22.9293H19.9062ZM21.0664 18.2457L21.9422 18.7283C22.5943 17.545 23.5938 16.6775 24.9985 16.1257L24.6328 15.195L24.2672 14.2642C22.4635 14.9728 21.0854 16.1392 20.1906 17.7631L21.0664 18.2457ZM24.6328 15.195L25.0105 16.1209L58.6121 2.41385L58.2344 1.48793L57.8567 0.562007L24.2551 14.269L24.6328 15.195ZM58.2344 1.48793H57.2344V14.6793H58.2344H59.2344V1.48793H58.2344ZM58.2344 14.6793L57.8587 13.7526L35.3861 22.862L35.7617 23.7887L36.1374 24.7155L58.61 15.6061L58.2344 14.6793ZM64.0352 49.7848V48.7848H63.0352V49.7848H64.0352ZM67.4727 49.7848H68.4727V48.7848H67.4727V49.7848ZM67.4727 63.1051V64.1051H68.4727V63.1051H67.4727ZM64.0352 63.1051H63.0352V64.1051H64.0352V63.1051ZM79.7188 68.3473L80.4239 67.6382L79.7188 66.9371L79.0136 67.6382L79.7188 68.3473ZM87.3242 75.9098L88.0333 76.6149L88.7384 75.9058L88.0293 75.2007L87.3242 75.9098ZM79.7188 83.5582L79.0097 84.2634L79.7188 84.9765L80.4278 84.2634L79.7188 83.5582ZM72.1133 75.9098L71.4082 75.2007L70.6991 75.9058L71.4042 76.6149L72.1133 75.9098ZM65.1094 68.3473L65.8105 67.6342L65.1014 66.9371L64.4003 67.6422L65.1094 68.3473ZM72.8008 75.9098L73.5059 76.6189L74.223 75.9058L73.5019 75.1967L72.8008 75.9098ZM65.1094 83.5582L64.3963 84.2593L65.1014 84.9765L65.8145 84.2673L65.1094 83.5582ZM57.5898 75.9098L56.8807 75.2047L56.1836 75.9058L56.8768 76.6109L57.5898 75.9098ZM66.4414 63.1051H65.4414V64.1051H66.4414V63.1051ZM66.4414 49.7848V48.7848H65.4414V49.7848H66.4414ZM76.4531 29.5895L76.2032 28.6212L75.2596 28.8647L75.4787 29.8144L76.4531 29.5895ZM88.4414 26.4957L89.4208 26.2938L89.2087 25.265L88.1915 25.5275L88.4414 26.4957ZM89.7734 34.7457L88.78 34.8608L88.7813 34.8711L89.7734 34.7457ZM83.457 60.3981L82.8705 59.5881L82.8661 59.5914L83.457 60.3981ZM64.0352 49.7848V50.7848H67.4727V49.7848V48.7848H64.0352V49.7848ZM67.4727 49.7848H66.4727V63.1051H67.4727H68.4727V49.7848H67.4727ZM67.4727 63.1051V62.1051H64.0352V63.1051V64.1051H67.4727V63.1051ZM64.0352 63.1051H65.0352V49.7848H64.0352H63.0352V63.1051H64.0352ZM79.7188 68.3473L79.0136 69.0564L86.6191 76.6189L87.3242 75.9098L88.0293 75.2007L80.4239 67.6382L79.7188 68.3473ZM87.3242 75.9098L86.6151 75.2047L79.0097 82.8531L79.7188 83.5582L80.4278 84.2634L88.0333 76.6149L87.3242 75.9098ZM79.7188 83.5582L80.4278 82.8531L72.8224 75.2047L72.1133 75.9098L71.4042 76.6149L79.0097 84.2634L79.7188 83.5582ZM72.1133 75.9098L72.8184 76.6189L80.4239 69.0564L79.7188 68.3473L79.0136 67.6382L71.4082 75.2007L72.1133 75.9098ZM65.1094 68.3473L64.4083 69.0604L72.0997 76.6229L72.8008 75.9098L73.5019 75.1967L65.8105 67.6342L65.1094 68.3473ZM72.8008 75.9098L72.0957 75.2007L64.4043 82.8492L65.1094 83.5582L65.8145 84.2673L73.5059 76.6189L72.8008 75.9098ZM65.1094 83.5582L65.8225 82.8572L58.3029 75.2087L57.5898 75.9098L56.8768 76.6109L64.3963 84.2593L65.1094 83.5582ZM57.5898 75.9098L58.299 76.6149L65.8185 69.0524L65.1094 68.3473L64.4003 67.6422L56.8807 75.2047L57.5898 75.9098ZM73.2305 63.1051V62.1051H66.4414V63.1051V64.1051H73.2305V63.1051ZM66.4414 63.1051H67.4414V49.7848H66.4414H65.4414V63.1051H66.4414ZM66.4414 49.7848V50.7848H73.3164V49.7848V48.7848H66.4414V49.7848ZM73.3164 49.7848V50.7848C75.5622 50.7848 77.369 50.0588 78.3848 48.3657L77.5273 47.8512L76.6699 47.3367C76.1389 48.2217 75.1384 48.7848 73.3164 48.7848V49.7848ZM77.5273 47.8512L78.3848 48.3657C79.2777 46.8776 79.6875 45.0376 79.6875 42.9098H78.6875H77.6875C77.6875 44.7925 77.3239 46.2467 76.6699 47.3367L77.5273 47.8512ZM78.6875 42.9098H79.6875C79.6875 40.8802 79.434 38.6625 78.9362 36.2615L77.957 36.4645L76.9779 36.6675C77.454 38.9644 77.6875 41.0436 77.6875 42.9098H78.6875ZM77.957 36.4645L78.9362 36.2615C78.4478 33.9056 77.9449 31.6066 77.4275 29.3646L76.4531 29.5895L75.4787 29.8144C75.9926 32.0411 76.4923 34.3255 76.9779 36.6675L77.957 36.4645ZM76.4531 29.5895L76.703 30.5578L88.6913 27.464L88.4414 26.4957L88.1915 25.5275L76.2032 28.6212L76.4531 29.5895ZM88.4414 26.4957L87.462 26.6977C88.0292 29.4486 88.4685 32.1696 88.7801 34.8608L89.7734 34.7457L90.7668 34.6307C90.4482 31.8792 89.9994 29.1002 89.4208 26.2938L88.4414 26.4957ZM89.7734 34.7457L88.7813 34.8711C89.1203 37.5549 89.2891 40.1197 89.2891 42.5661H90.2891H91.2891C91.2891 40.028 91.114 37.3793 90.7656 34.6204L89.7734 34.7457ZM90.2891 42.5661H89.2891C89.2891 46.3747 88.7849 49.76 87.7935 52.7342L88.7422 53.0504L89.6909 53.3667C90.762 50.1533 91.2891 46.5491 91.2891 42.5661H90.2891ZM88.7422 53.0504L87.7935 52.7342C86.8242 55.6422 85.1829 57.9137 82.8705 59.5881L83.457 60.3981L84.0435 61.208C86.7155 59.2731 88.5977 56.6462 89.6909 53.3667L88.7422 53.0504ZM83.457 60.3981L82.8661 59.5914C80.6332 61.2271 77.4596 62.1051 73.2305 62.1051V63.1051V64.1051C77.7097 64.1051 81.3538 63.1784 84.048 61.2048L83.457 60.3981ZM99.3984 2.64809V1.64809H98.3984V2.64809H99.3984ZM111.816 2.64809H112.816V1.64809H111.816V2.64809ZM112.934 47.8512L112.063 48.3433L112.069 48.3546L112.076 48.3657L112.934 47.8512ZM119.293 49.7848H120.293V48.7848H119.293V49.7848ZM119.293 63.1051V64.1051H120.293V63.1051H119.293ZM103.867 58.0348L103.114 58.6929L103.117 58.696L103.867 58.0348ZM99.3984 2.64809V3.64809H111.816V2.64809V1.64809H99.3984V2.64809ZM111.816 2.64809H110.816V41.5778H111.816H112.816V2.64809H111.816ZM111.816 41.5778H110.816C110.816 44.4861 111.187 46.7933 112.063 48.3433L112.934 47.8512L113.804 47.3592C113.191 46.2737 112.816 44.3986 112.816 41.5778H111.816ZM112.934 47.8512L112.076 48.3657C113.141 50.1398 115.405 50.7848 118.219 50.7848V49.7848V48.7848C115.533 48.7848 114.274 48.1408 113.791 47.3367L112.934 47.8512ZM118.219 49.7848V50.7848H119.293V49.7848V48.7848H118.219V49.7848ZM119.293 49.7848H118.293V63.1051H119.293H120.293V49.7848H119.293ZM119.293 63.1051V62.1051H118.219V63.1051V64.1051H119.293V63.1051ZM118.219 63.1051V62.1051C111.782 62.1051 107.333 60.4544 104.617 57.3736L103.867 58.0348L103.117 58.696C106.36 62.3756 111.478 64.1051 118.219 64.1051V63.1051ZM103.867 58.0348L104.62 57.3767C101.862 54.2211 100.398 49.4282 100.398 42.8239H99.3984H98.3984C98.3984 49.683 99.9138 55.0309 103.114 58.6929L103.867 58.0348ZM99.3984 42.8239H100.398V2.64809H99.3984H98.3984V42.8239H99.3984ZM142.668 40.8903L143.311 41.6565L143.313 41.6546L142.668 40.8903ZM140.348 43.5543L139.505 43.0159L140.348 43.5543ZM138.715 46.4332L137.815 45.9977L137.486 46.6767L138.049 47.1792L138.715 46.4332ZM140.992 48.2809L140.408 49.0924L140.415 49.0978L140.423 49.1031L140.992 48.2809ZM143.055 49.57L142.576 50.4479L142.578 50.4488L143.055 49.57ZM150.875 49.3551L149.99 48.8894L150.875 49.3551ZM150.145 41.5778L149.386 42.2301L149.394 42.2388L150.145 41.5778ZM142.066 63.1911L142.378 62.2409L142.369 62.2379L142.066 63.1911ZM136.781 60.8707L136.271 61.7308L136.28 61.7359L136.288 61.7408L136.781 60.8707ZM131.797 57.6051L132.381 56.7933L131.701 56.3042L131.1 56.8878L131.797 57.6051ZM128.703 60.3121L128.086 59.5251L128.703 60.3121ZM124.922 62.3317L124.589 61.3887L124.583 61.3908L124.922 62.3317ZM117.574 63.1051H116.574V64.1051H117.574V63.1051ZM117.574 49.7848V48.7848H116.574V49.7848H117.574ZM122.816 48.152L122.109 47.4448L122.1 47.4544L122.816 48.152ZM126.039 43.9411L126.89 44.466L126.894 44.4597L126.039 43.9411ZM129.391 38.4411L128.543 37.9099L128.538 37.9191L129.391 38.4411ZM133.387 32.984L132.626 32.3353L132.625 32.3364L133.387 32.984ZM138.543 28.7301L138.055 27.8572L138.543 28.7301ZM154.914 29.7184L155.458 28.8795L154.914 29.7184ZM161.102 36.5934L160.209 37.0442L160.213 37.0514L161.102 36.5934ZM161.574 55.1129L160.65 54.7317L160.648 54.7366L161.574 55.1129ZM156.461 61.6871L157.039 62.503L157.041 62.5016L156.461 61.6871ZM145.762 39.7301V38.7301C144.368 38.7301 143.111 39.2081 142.023 40.126L142.668 40.8903L143.313 41.6546C144.058 41.0256 144.864 40.7301 145.762 40.7301V39.7301ZM142.668 40.8903L142.025 40.1241C141.055 40.9378 140.215 41.9038 139.505 43.0159L140.348 43.5543L141.19 44.0927C141.798 43.1423 142.505 42.3324 143.311 41.6565L142.668 40.8903ZM140.348 43.5543L139.505 43.0159C138.83 44.0728 138.265 45.0671 137.815 45.9977L138.715 46.4332L139.615 46.8688C140.024 46.0234 140.548 45.0984 141.19 44.0927L140.348 43.5543ZM138.715 46.4332L138.049 47.1792C138.872 47.9138 139.658 48.5526 140.408 49.0924L140.992 48.2809L141.576 47.4694C140.894 46.978 140.162 46.385 139.381 45.6873L138.715 46.4332ZM140.992 48.2809L140.423 49.1031C141.19 49.6339 141.908 50.0834 142.576 50.4479L143.055 49.57L143.534 48.6921C142.941 48.369 142.284 47.9591 141.561 47.4587L140.992 48.2809ZM143.055 49.57L142.578 50.4488C143.628 51.0193 144.611 51.4303 145.519 51.6573L145.762 50.6871L146.004 49.717C145.308 49.543 144.486 49.2092 143.532 48.6911L143.055 49.57ZM145.762 50.6871L145.519 51.6573C146.377 51.8719 147.177 51.9879 147.91 51.9879V50.9879V49.9879C147.383 49.9879 146.75 49.9035 146.004 49.717L145.762 50.6871ZM147.91 50.9879V51.9879C148.74 51.9879 149.513 51.8267 150.187 51.4557C150.868 51.0806 151.391 50.522 151.76 49.8209L150.875 49.3551L149.99 48.8894C149.786 49.2768 149.529 49.5346 149.222 49.7038C148.907 49.877 148.484 49.9879 147.91 49.9879V50.9879ZM150.875 49.3551L151.76 49.8209C152.412 48.5818 152.734 47.232 152.734 45.7887H151.734H150.734C150.734 46.9235 150.484 47.9514 149.99 48.8894L150.875 49.3551ZM151.734 45.7887H152.734C152.734 43.9413 152.116 42.3026 150.895 40.9167L150.145 41.5778L149.394 42.2388C150.293 43.2592 150.734 44.4278 150.734 45.7887H151.734ZM150.145 41.5778L150.903 40.9255C149.624 39.4395 147.868 38.7301 145.762 38.7301V39.7301V40.7301C147.38 40.7301 148.545 41.2525 149.387 42.23L150.145 41.5778ZM147.824 64.0934V63.0934C145.921 63.0934 144.107 62.8082 142.378 62.2409L142.066 63.1911L141.755 64.1412C143.693 64.7771 145.717 65.0934 147.824 65.0934V64.0934ZM142.066 63.1911L142.369 62.2379C140.633 61.6869 138.935 60.9419 137.274 60.0007L136.781 60.8707L136.288 61.7408C138.065 62.7475 139.89 63.5494 141.764 64.1442L142.066 63.1911ZM136.781 60.8707L137.291 60.0107C135.627 59.0234 133.99 57.951 132.381 56.7933L131.797 57.6051L131.213 58.4169C132.869 59.6082 134.555 60.7129 136.271 61.7308L136.781 60.8707ZM131.797 57.6051L131.1 56.8878C130.122 57.8381 129.117 58.717 128.086 59.5251L128.703 60.3121L129.32 61.0992C130.409 60.2458 131.467 59.3201 132.494 58.3224L131.797 57.6051ZM128.703 60.3121L128.086 59.5251C127.124 60.2795 125.963 60.9039 124.589 61.3887L124.922 62.3317L125.255 63.2747C126.803 62.7282 128.163 62.0062 129.32 61.0992L128.703 60.3121ZM124.922 62.3317L124.583 61.3908C123.297 61.854 121.602 62.1051 119.465 62.1051V63.1051V64.1051C121.739 64.1051 123.683 63.8406 125.261 63.2726L124.922 62.3317ZM119.465 63.1051V62.1051H117.574V63.1051V64.1051H119.465V63.1051ZM117.574 63.1051H118.574V49.7848H117.574H116.574V63.1051H117.574ZM117.574 49.7848V50.7848H119.25V49.7848V48.7848H117.574V49.7848ZM119.25 49.7848V50.7848C120.879 50.7848 122.316 50.0993 123.533 48.8496L122.816 48.152L122.1 47.4544C121.197 48.3818 120.256 48.7848 119.25 48.7848V49.7848ZM122.816 48.152L123.524 48.8591C124.681 47.7017 125.801 46.2316 126.89 44.4659L126.039 43.9411L125.188 43.4162C124.157 45.088 123.129 46.4252 122.109 47.4449L122.816 48.152ZM126.039 43.9411L126.894 44.4597C127.953 42.7135 129.07 40.8813 130.244 38.963L129.391 38.4411L128.538 37.9191C127.363 39.8394 126.245 41.6738 125.184 43.4224L126.039 43.9411ZM129.391 38.4411L130.238 38.9722C131.416 37.0936 132.719 35.3135 134.149 33.6317L133.387 32.984L132.625 32.3364C131.132 34.092 129.772 35.95 128.543 37.9099L129.391 38.4411ZM133.387 32.984L134.148 33.6328C135.563 31.9731 137.19 30.632 139.031 29.6031L138.543 28.7301L138.055 27.8572C136.001 29.0053 134.19 30.5002 132.626 32.3353L133.387 32.984ZM138.543 28.7301L139.031 29.6031C140.808 28.61 142.898 28.0973 145.332 28.0973V27.0973V26.0973C142.61 26.0973 140.174 26.6732 138.055 27.8572L138.543 28.7301ZM145.332 27.0973V28.0973C148.864 28.0973 151.862 28.9302 154.37 30.5573L154.914 29.7184L155.458 28.8795C152.58 27.0118 149.191 26.0973 145.332 26.0973V27.0973ZM154.914 29.7184L154.37 30.5573C156.916 32.2094 158.857 34.3679 160.209 37.0442L161.102 36.5934L161.994 36.1426C160.481 33.1471 158.298 30.7222 155.458 28.8795L154.914 29.7184ZM161.102 36.5934L160.213 37.0514C161.598 39.741 162.293 42.6484 162.293 45.7887H163.293H164.293C164.293 42.3405 163.527 39.1177 161.991 36.1354L161.102 36.5934ZM163.293 45.7887H162.293C162.293 49.1141 161.739 52.0901 160.65 54.7317L161.574 55.1129L162.499 55.4942C163.701 52.5785 164.293 49.3384 164.293 45.7887H163.293ZM161.574 55.1129L160.648 54.7366C159.598 57.3208 158.009 59.3563 155.881 60.8727L156.461 61.6871L157.041 62.5016C159.496 60.7524 161.316 58.4051 162.501 55.4893L161.574 55.1129ZM156.461 61.6871L155.883 60.8713C153.828 62.3278 151.166 63.0934 147.824 63.0934V64.0934V65.0934C151.472 65.0934 154.568 64.2549 157.039 62.503L156.461 61.6871Z" fill="url(#paint1_linear_1329_1884)" style="" mask="url(#path-1-outside-1_1329_1884)"/>
<defs>
<linearGradient id="paint0_linear_1329_1884" x1="277.465" y1="41.6051" x2="-115.535" y2="41.6051" gradientUnits="userSpaceOnUse">
<stop stop-color="#1B80E5" style="stop-color:#1B80E5;stop-color:color(display-p3 0.1056 0.5011 0.8966);stop-opacity:1;"/>
<stop offset="1" stop-color="#392DDE" style="stop-color:#392DDE;stop-color:color(display-p3 0.2227 0.1765 0.8697);stop-opacity:1;"/>
</linearGradient>
<linearGradient id="paint1_linear_1329_1884" x1="277.465" y1="41.6051" x2="-115.535" y2="41.6051" gradientUnits="userSpaceOnUse">
<stop stop-color="#1B80E5" style="stop-color:#1B80E5;stop-color:color(display-p3 0.1056 0.5011 0.8966);stop-opacity:1;"/>
<stop offset="1" stop-color="#392DDE" style="stop-color:#392DDE;stop-color:color(display-p3 0.2227 0.1765 0.8697);stop-opacity:1;"/>
</linearGradient>
</defs>
</svg>
