<svg width="72" height="72" viewBox="0 0 72 72" fill="none" xmlns="http://www.w3.org/2000/svg">
<g clip-path="url(#clip0_297_3693)">
<rect width="72" height="72" rx="12" fill="url(#paint0_linear_297_3693)" style=""/>
<g filter="url(#filter0_d_297_3693)">
<path d="M17.0516 43.8C14.5676 43.8 12.746 43.2388 11.5868 42.1164C10.4276 40.9756 9.82961 39.2368 9.79281 36.9L9.59961 24.0384L13.3532 23.1L13.7396 23.2932L13.712 36.9C13.712 37.5256 13.804 38.0224 13.988 38.3904C14.1904 38.74 14.5308 38.9976 15.0092 39.1632C15.506 39.3104 16.1868 39.384 17.0516 39.384L17.6588 39.66V43.524L17.0516 43.8Z" fill="white" style="fill:white;fill-opacity:1;"/>
<path d="M32.2338 43.8C30.8722 43.8 29.713 43.6804 28.7562 43.4412C27.7994 43.1836 26.9438 42.7512 26.1894 42.144C25.4534 41.5368 24.699 40.718 23.9262 39.6876L17.799 31.38V27.2124L29.6394 23.1L30.0258 23.2932V27.1296L18.6546 31.0764L20.5038 27.8196L27.045 36.7344C27.5418 37.3968 28.0202 37.9212 28.4802 38.3076C28.9402 38.694 29.4646 38.97 30.0534 39.1356C30.6606 39.3012 31.3874 39.384 32.2338 39.384L32.841 39.66V43.524L32.2338 43.8ZM17.0538 43.8L16.4466 43.524V39.66L17.0538 39.384H18.2682C19.7954 39.384 20.973 39.338 21.801 39.246C22.6474 39.1356 23.227 38.9792 23.5398 38.7768C23.871 38.556 24.0366 38.2708 24.0366 37.9212H27.6246C27.6246 39.2644 27.2934 40.3684 26.631 41.2332C25.9686 42.098 24.9474 42.742 23.5674 43.1652C22.1874 43.5884 20.421 43.8 18.2682 43.8H17.0538Z" fill="white" style="fill:white;fill-opacity:1;"/>
<path d="M32.2284 43.8L31.6212 43.524V39.66L32.2284 39.384C33.2772 39.384 34.0868 39.3288 34.6572 39.2184C35.246 39.108 35.6508 38.924 35.8716 38.6664C36.1108 38.4088 36.2304 38.05 36.2304 37.59C36.2304 37.4612 36.2212 37.2772 36.2028 37.038C36.1844 36.7804 36.1476 36.4124 36.0924 35.934C36.0372 35.4556 35.9544 34.8208 35.844 34.0296C35.7336 33.2384 35.5956 32.2448 35.43 31.0488L38.8524 30.552L39.2388 30.7452C39.3492 31.886 39.432 32.8888 39.4872 33.7536C39.5608 34.6 39.6068 35.3176 39.6252 35.9064C39.662 36.4952 39.6804 36.9828 39.6804 37.3692C39.6804 39.614 39.1008 41.2516 37.9416 42.282C36.8008 43.294 34.8964 43.8 32.2284 43.8ZM32.6148 50.976L30.1308 48.492L32.6148 46.008L35.0988 48.492L32.6148 50.976ZM37.362 50.976L34.878 48.492L37.362 46.008L39.846 48.492L37.362 50.976Z" fill="white" style="fill:white;fill-opacity:1;"/>
<path d="M50.177 43.8C47.693 43.8 45.8714 43.2388 44.7122 42.1164C43.553 40.9756 42.955 39.2368 42.9182 36.9L42.725 24.0384L46.4786 23.1L46.865 23.2932L46.8374 36.9C46.8374 37.5256 46.9294 38.0224 47.1134 38.3904C47.3158 38.74 47.6562 38.9976 48.1346 39.1632C48.6314 39.3104 49.3122 39.384 50.177 39.384L50.7842 39.66V43.524L50.177 43.8Z" fill="white" style="fill:white;fill-opacity:1;"/>
<path d="M60.336 43.8C59.5816 43.8 58.772 43.662 57.9072 43.386C57.0608 43.0916 56.242 42.6868 55.4508 42.1716C54.678 41.6564 54.0156 41.0676 53.4636 40.4052L55.4508 36.9552C55.9476 37.5072 56.4536 37.9672 56.9688 38.3352C57.5024 38.7032 58.0452 38.9792 58.5972 39.1632C59.1676 39.3288 59.7472 39.4116 60.336 39.4116C60.8696 39.4116 61.2376 39.292 61.44 39.0528C61.6608 38.7952 61.7712 38.4916 61.7712 38.142C61.7712 37.7188 61.67 37.2864 61.4676 36.8448C61.2836 36.4032 61.0168 36.0352 60.6672 35.7408C60.336 35.428 59.9496 35.2716 59.508 35.2716C59.1032 35.2716 58.68 35.4648 58.2384 35.8512C57.7968 36.2192 57.3368 36.808 56.8584 37.6176L54.7884 41.0676C54.3836 41.7484 53.9696 42.2912 53.5464 42.696C53.1232 43.1008 52.6448 43.386 52.1112 43.5516C51.5776 43.7172 50.9336 43.8 50.1792 43.8L49.572 43.524V39.66L50.1792 39.384C50.9152 39.384 51.458 39.292 51.8076 39.108C52.1572 38.9056 52.5068 38.51 52.8564 37.9212L54.9264 34.4712C55.5152 33.4776 56.2052 32.714 56.9964 32.1804C57.806 31.6468 58.6524 31.38 59.5356 31.38C60.5476 31.38 61.4676 31.6836 62.2956 32.2908C63.142 32.898 63.8136 33.7168 64.3104 34.7472C64.8256 35.7592 65.0832 36.8908 65.0832 38.142C65.0832 39.8716 64.6416 41.2516 63.7584 42.282C62.8936 43.294 61.7528 43.8 60.336 43.8Z" fill="white" style="fill:white;fill-opacity:1;"/>
</g>
</g>
<defs>
<filter id="filter0_d_297_3693" x="0.599609" y="19.725" width="73.4834" height="45.876" filterUnits="userSpaceOnUse" color-interpolation-filters="sRGB">
<feFlood flood-opacity="0" result="BackgroundImageFix"/>
<feColorMatrix in="SourceAlpha" type="matrix" values="0 0 0 0 0 0 0 0 0 0 0 0 0 0 0 0 0 0 127 0" result="hardAlpha"/>
<feOffset dy="5.625"/>
<feGaussianBlur stdDeviation="4.5"/>
<feComposite in2="hardAlpha" operator="out"/>
<feColorMatrix type="matrix" values="0 0 0 0 0 0 0 0 0 0 0 0 0 0 0 0 0 0 0.3 0"/>
<feBlend mode="normal" in2="BackgroundImageFix" result="effect1_dropShadow_297_3693"/>
<feBlend mode="normal" in="SourceGraphic" in2="effect1_dropShadow_297_3693" result="shape"/>
</filter>
<linearGradient id="paint0_linear_297_3693" x1="72" y1="36" x2="0" y2="36" gradientUnits="userSpaceOnUse">
<stop stop-color="#1B80E5" style="stop-color:#1B80E5;stop-color:color(display-p3 0.1056 0.5011 0.8966);stop-opacity:1;"/>
<stop offset="1" stop-color="#392DDE" style="stop-color:#392DDE;stop-color:color(display-p3 0.2227 0.1765 0.8697);stop-opacity:1;"/>
</linearGradient>
<clipPath id="clip0_297_3693">
<rect width="72" height="72" rx="12" fill="white" style="fill:white;fill-opacity:1;"/>
</clipPath>
</defs>
</svg>
