<svg width="28" height="28" viewBox="0 0 28 28" fill="none" xmlns="http://www.w3.org/2000/svg">
<path d="M24.4987 20.9088V23.9165C24.4987 24.4602 24.4987 24.732 24.41 24.9467C24.2914 25.232 24.0644 25.4585 23.7789 25.5767C23.5642 25.6665 23.2924 25.6665 22.7487 25.6665C22.205 25.6665 21.9332 25.6665 21.7185 25.5778C21.4332 25.4592 21.2067 25.2322 21.0885 24.9467C20.9987 24.732 20.9987 24.4602 20.9987 23.9165C20.9987 23.3728 20.9987 23.101 20.91 22.8863C20.7914 22.601 20.5644 22.3745 20.2789 22.2563C20.0642 22.1665 19.7924 22.1665 19.2487 22.1665H7.58203C7.03836 22.1665 6.76653 22.1665 6.55186 22.2552C6.26657 22.3738 6.04 22.6008 5.92186 22.8863C5.83203 23.101 5.83203 23.3728 5.83203 23.9165C5.83203 24.4602 5.83203 24.732 5.74336 24.9467C5.6247 25.232 5.39771 25.4585 5.1122 25.5767C4.89753 25.6665 4.6257 25.6665 4.08203 25.6665C3.53836 25.6665 3.26653 25.6665 3.05186 25.5778C2.76657 25.4592 2.54 25.2322 2.42186 24.9467C2.33203 24.732 2.33203 24.4602 2.33203 23.9165V20.9088C2.33203 19.5065 2.33203 18.8053 2.5327 18.1438C2.73336 17.4823 3.12186 16.899 3.90003 15.7323L4.66536 14.5832L5.71653 12.2697C6.62303 10.277 7.0757 9.28067 7.94136 8.723C8.80586 8.1665 9.90136 8.1665 12.09 8.1665H14.7407C16.9305 8.1665 18.0249 8.1665 18.8894 8.72417C19.755 9.28067 20.2077 10.277 21.1142 12.2708L22.1654 14.5832L22.9307 15.7323C23.7089 16.899 24.0974 17.4823 24.298 18.1438C24.4987 18.8053 24.4987 19.5065 24.4987 20.9088Z" stroke="white" style="stroke:white;stroke-opacity:1;" stroke-width="1.5" stroke-linecap="round" stroke-linejoin="round"/>
<path d="M2.33203 12.8333L4.66536 14.5833L6.71986 15.0966C6.90653 15.1433 7.09514 15.1666 7.2857 15.1666H19.545C19.7356 15.1666 19.9242 15.1433 20.1109 15.0966L22.1654 14.5833L24.4987 12.8333" stroke="white" style="stroke:white;stroke-opacity:1;" stroke-width="1.5" stroke-linecap="round" stroke-linejoin="round"/>
<path d="M19.8333 18.6665V18.6782M7 18.6665V18.6782" stroke="white" style="stroke:white;stroke-opacity:1;" stroke-width="2" stroke-linecap="round" stroke-linejoin="round"/>
<path d="M22.1654 8.16659C22.1654 7.54775 21.9195 6.95425 21.4819 6.51667C21.0444 6.07908 20.4509 5.83325 19.832 5.83325M25.6654 8.16659C25.6654 6.61949 25.0508 5.13576 23.9568 4.0418C22.8629 2.94783 21.3791 2.33325 19.832 2.33325" stroke="white" style="stroke:white;stroke-opacity:1;" stroke-width="1.5" stroke-linecap="round" stroke-linejoin="round"/>
</svg>
