<svg width="18" height="18" viewBox="0 0 18 18" fill="none" xmlns="http://www.w3.org/2000/svg">
<path d="M3.375 7.125H3C2.29275 7.125 1.9395 7.125 1.71975 7.34475C1.5 7.5645 1.5 7.91775 1.5 8.625V15C1.5 15.7073 1.5 16.0605 1.71975 16.2803C1.9395 16.5 2.29275 16.5 3 16.5H3.375C4.08225 16.5 4.4355 16.5 4.65525 16.2803C4.875 16.0605 4.875 15.7073 4.875 15V8.625C4.875 7.91775 4.875 7.5645 4.65525 7.34475C4.4355 7.125 4.08225 7.125 3.375 7.125ZM4.875 3.1875C4.875 3.63505 4.69721 4.06427 4.38074 4.38074C4.06427 4.69721 3.63505 4.875 3.1875 4.875C2.73995 4.875 2.31072 4.69721 1.99426 4.38074C1.67779 4.06427 1.5 3.63505 1.5 3.1875C1.5 2.73995 1.67779 2.31072 1.99426 1.99426C2.31072 1.67779 2.73995 1.5 3.1875 1.5C3.63505 1.5 4.06427 1.67779 4.38074 1.99426C4.69721 2.31072 4.875 2.73995 4.875 3.1875Z" stroke="white" style="stroke:white;stroke-opacity:1;" stroke-width="1.3"/>
<path d="M9.2445 7.12477H8.625C7.91775 7.12477 7.5645 7.12477 7.34475 7.34452C7.125 7.56427 7.125 7.91752 7.125 8.62477V14.9998C7.125 15.707 7.125 16.0603 7.34475 16.28C7.5645 16.4998 7.91775 16.4998 8.625 16.4998H9C9.70725 16.4998 10.0605 16.4998 10.2802 16.28C10.5 16.0603 10.5 15.707 10.5 14.9998V12.3748C10.5 11.132 10.896 10.1248 12.066 10.1248C12.651 10.1248 13.125 10.6288 13.125 11.2498V14.6248C13.125 15.332 13.125 15.6853 13.3447 15.905C13.5645 16.1248 13.9177 16.1248 14.625 16.1248H14.9993C15.7058 16.1248 16.0597 16.1248 16.2795 15.905C16.4985 15.6853 16.4993 15.332 16.4993 14.6255L16.5 10.4998C16.5 8.63527 14.727 7.12477 12.9728 7.12477C11.9738 7.12477 11.0828 7.61377 10.5 8.37952C10.5 7.90702 10.5 7.67077 10.3972 7.49527C10.3323 7.38422 10.2398 7.29176 10.1288 7.22677C9.95325 7.12402 9.717 7.12402 9.2445 7.12402V7.12477Z" stroke="white" style="stroke:white;stroke-opacity:1;" stroke-width="1.3" stroke-linejoin="round"/>
</svg>
