<svg width="24" height="24" viewBox="0 0 24 24" fill="none" xmlns="http://www.w3.org/2000/svg">
<path d="M20 7C19.923 5.582 19.712 4.664 19.136 3.962C18.9699 3.75965 18.7844 3.57409 18.582 3.408C17.475 2.5 15.832 2.5 12.544 2.5H12C8.229 2.5 6.343 2.5 5.172 3.671C4.001 4.842 4 6.73 4 10.5V13.5C4 17.271 4 19.157 5.172 20.328C6.344 21.499 8.229 21.5 12 21.5H12.544C15.832 21.5 17.476 21.5 18.582 20.592C18.7847 20.4253 18.9693 20.2403 19.136 20.037C19.712 19.335 19.923 18.417 20 17" stroke="white" style="stroke:white;stroke-opacity:1;" stroke-width="1.5" stroke-linecap="round"/>
<path d="M13 8C13 8 9 10.946 9 12C9 13.054 13 16 13 16M9.5 12H20" stroke="white" style="stroke:white;stroke-opacity:1;" stroke-width="1.5" stroke-linecap="round" stroke-linejoin="round"/>
</svg>
