<svg width="24" height="24" viewBox="0 0 24 24" fill="none" xmlns="http://www.w3.org/2000/svg">
<path d="M7 8.5L9.942 10.24C11.657 11.254 12.342 11.254 14.058 10.24L17 8.5" stroke="white" style="stroke:white;stroke-opacity:1;" stroke-width="1.5" stroke-linecap="round" stroke-linejoin="round"/>
<path d="M2.01679 13.4761C2.08179 16.5411 2.11479 18.0741 3.24579 19.2091C4.37679 20.3451 5.95079 20.3841 9.09979 20.4631C11.0398 20.5131 12.9618 20.5131 14.9018 20.4631C18.0508 20.3841 19.6248 20.3451 20.7558 19.2091C21.8868 18.0741 21.9198 16.5411 21.9858 13.4761C22.0058 12.4901 22.0058 11.5101 21.9858 10.5241C21.9198 7.45908 21.8868 5.92608 20.7558 4.79108C19.6248 3.65508 18.0508 3.61608 14.9018 3.53708C12.9681 3.48829 11.0335 3.48829 9.09979 3.53708C5.95079 3.61608 4.37679 3.65508 3.24579 4.79108C2.11479 5.92608 2.08179 7.45908 2.01579 10.5241C1.99474 11.508 1.99574 12.4922 2.01679 13.4761Z" stroke="white" style="stroke:white;stroke-opacity:1;" stroke-width="1.5" stroke-linejoin="round"/>
</svg>
