<svg width="24" height="24" viewBox="0 0 24 24" fill="none" xmlns="http://www.w3.org/2000/svg">
<path d="M7 8.5L9.942 10.24C11.657 11.254 12.342 11.254 14.058 10.24L17 8.5" stroke="#1D293D" style="stroke:#1D293D;stroke:color(display-p3 0.1137 0.1608 0.2392);stroke-opacity:1;" stroke-width="1.3" stroke-linecap="round" stroke-linejoin="round"/>
<path d="M2.01679 13.476C2.08179 16.541 2.11479 18.074 3.24579 19.209C4.37679 20.345 5.95079 20.384 9.09979 20.463C11.0398 20.513 12.9618 20.513 14.9018 20.463C18.0508 20.384 19.6248 20.345 20.7558 19.209C21.8868 18.074 21.9198 16.541 21.9858 13.476C22.0058 12.49 22.0058 11.51 21.9858 10.524C21.9198 7.45902 21.8868 5.92602 20.7558 4.79102C19.6248 3.65502 18.0508 3.61602 14.9018 3.53702C12.9681 3.48823 11.0335 3.48823 9.09979 3.53702C5.95079 3.61602 4.37679 3.65502 3.24579 4.79102C2.11479 5.92602 2.08179 7.45902 2.01579 10.524C1.99474 11.5079 1.99574 12.4921 2.01679 13.476Z" stroke="#1D293D" style="stroke:#1D293D;stroke:color(display-p3 0.1137 0.1608 0.2392);stroke-opacity:1;" stroke-width="1.3" stroke-linejoin="round"/>
</svg>
