<svg width="28" height="28" viewBox="0 0 28 28" fill="none" xmlns="http://www.w3.org/2000/svg">
<path d="M18.0852 21.0001C18.0852 21.5363 17.9796 22.0673 17.7744 22.5627C17.5692 23.0581 17.2684 23.5083 16.8892 23.8874C16.5101 24.2666 16.0599 24.5674 15.5645 24.7726C15.0691 24.9778 14.5381 25.0834 14.0019 25.0834C13.4656 25.0834 12.9347 24.9778 12.4392 24.7726C11.9438 24.5674 11.4937 24.2666 11.1145 23.8874C10.7353 23.5083 10.4346 23.0581 10.2294 22.5627C10.0242 22.0673 9.91854 21.5363 9.91854 21.0001M22.438 21.0001H5.56687C5.15874 20.9999 4.75982 20.8787 4.42055 20.6519C4.08128 20.425 3.81689 20.1026 3.6608 19.7255C3.50471 19.3484 3.46394 18.9335 3.54364 18.5332C3.62333 18.133 3.81992 17.7653 4.10854 17.4767L4.81087 16.7732C5.46687 16.1168 5.83532 15.2268 5.83521 14.2987V11.0834C5.83521 8.91748 6.69562 6.84026 8.22717 5.30871C9.75871 3.77716 11.8359 2.91675 14.0019 2.91675C16.1678 2.91675 18.245 3.77716 19.7766 5.30871C21.3081 6.84026 22.1685 8.91748 22.1685 11.0834V14.2987C22.1687 15.2269 22.5376 16.117 23.194 16.7732L23.8975 17.4767C24.1856 17.7655 24.3817 18.1331 24.461 18.5332C24.5404 18.9333 24.4995 19.348 24.3435 19.7248C24.1876 20.1017 23.9234 20.4239 23.5845 20.6509C23.2456 20.8779 22.8459 20.9994 22.438 21.0001Z" stroke="#1D293D" style="stroke:#1D293D;stroke:color(display-p3 0.1137 0.1608 0.2392);stroke-opacity:1;" stroke-width="1.5" stroke-linecap="round" stroke-linejoin="round"/>
</svg>
