<svg width="28" height="28" viewBox="0 0 28 28" fill="none" xmlns="http://www.w3.org/2000/svg">
<path d="M23.75 15.5831C22.3616 16.9703 19.7518 16.9166 15.7478 16.9166C14.5103 16.9163 13.3236 16.4245 12.4487 15.5494C11.5738 14.6743 11.0823 13.4875 11.0823 12.25C11.0823 8.24831 11.0286 5.63498 12.4158 4.24781C13.803 2.86065 14.4166 2.91781 20.5638 2.91781C20.6956 2.91714 20.8246 2.95565 20.9345 3.02846C21.0444 3.10126 21.1302 3.20508 21.1809 3.32672C21.2317 3.44836 21.2451 3.58235 21.2196 3.71165C21.1941 3.84096 21.1307 3.95977 21.0375 4.05298L17.8723 7.21815C17.6767 7.40803 17.5208 7.6349 17.4137 7.88556C17.3066 8.13623 17.2503 8.40569 17.2483 8.67828C17.2462 8.95087 17.2983 9.22115 17.4016 9.47341C17.5049 9.72568 17.6574 9.95489 17.85 10.1477C18.0427 10.3406 18.2718 10.4932 18.524 10.5967C18.7762 10.7002 19.0464 10.7525 19.319 10.7507C19.5916 10.7488 19.8611 10.6928 20.1119 10.5859C20.3626 10.479 20.5896 10.3232 20.7796 10.1278L23.946 6.96381C24.0391 6.87029 24.1579 6.80657 24.2873 6.78076C24.4167 6.75496 24.5508 6.76823 24.6726 6.81889C24.7945 6.86955 24.8985 6.95531 24.9714 7.06525C25.0444 7.1752 25.083 7.30437 25.0823 7.43631C25.0823 13.5823 25.1383 14.196 23.75 15.5831Z" stroke="#1D293D" style="stroke:#1D293D;stroke:color(display-p3 0.1137 0.1608 0.2392);stroke-opacity:1;" stroke-width="1.5"/>
<path d="M15.7485 16.9167L8.54781 24.1173C7.92481 24.7157 7.09203 25.0461 6.22823 25.0374C5.36443 25.0287 4.53846 24.6817 3.92763 24.0708C3.3168 23.46 2.9698 22.634 2.9611 21.7702C2.95241 20.9064 3.28273 20.0737 3.88114 19.4507L11.0818 12.25" stroke="#1D293D" style="stroke:#1D293D;stroke:color(display-p3 0.1137 0.1608 0.2392);stroke-opacity:1;" stroke-width="1.5" stroke-linecap="round"/>
<path d="M6.42456 21.5833H6.41406" stroke="#1D293D" style="stroke:#1D293D;stroke:color(display-p3 0.1137 0.1608 0.2392);stroke-opacity:1;" stroke-width="2" stroke-linecap="round" stroke-linejoin="round"/>
</svg>
