<svg width="392" height="464" viewBox="0 0 392 464" fill="none" xmlns="http://www.w3.org/2000/svg">
<g clip-path="url(#clip0_1570_2204)">
<path opacity="0.2" d="M0 36.0001V0.333496H36.8965M0 36.0001V71.6668M0 36.0001H36.8965M0 71.6668V107.334M0 71.6668H36.8965M0 107.334V143M0 107.334H36.8965M0 143V178.667M0 143H36.8965M0 178.667V214.334M0 178.667H36.8965M0 214.334V250M0 214.334H36.8965M0 250V285.667M0 250H36.8965M0 285.667V321.334M0 285.667H36.8965M0 321.334V357M0 321.334H36.8965M0 357V392.667M0 357H36.8965M0 392.667V428.333M0 392.667H36.8965M0 428.333H36.8965M0 428.333V464H36.8965M36.8965 0.333496V36.0001M36.8965 0.333496H73.793M36.8965 36.0001V71.6668M36.8965 36.0001H73.793M36.8965 71.6668V107.334M36.8965 71.6668H73.793M36.8965 107.334V143M36.8965 107.334H73.793M36.8965 143V178.667M36.8965 143H73.793M36.8965 178.667V214.334M36.8965 178.667H73.793M36.8965 214.334V250M36.8965 214.334H73.793M36.8965 250V285.667M36.8965 250H73.793M36.8965 285.667V321.334M36.8965 285.667H73.793M36.8965 321.334V357M36.8965 321.334H73.793M36.8965 357V392.667M36.8965 357H73.793M36.8965 392.667V428.333M36.8965 392.667H73.793M36.8965 428.333H73.793M36.8965 428.333V464M73.793 0.333496V36.0001M73.793 0.333496H110.69M73.793 36.0001V71.6668M73.793 36.0001H110.69M73.793 71.6668V107.334M73.793 71.6668H110.69M73.793 107.334V143M73.793 107.334H110.69M73.793 143V178.667M73.793 143H110.69M73.793 178.667V214.334M73.793 178.667H110.69M73.793 214.334V250M73.793 214.334H110.69M73.793 250V285.667M73.793 250H110.69M73.793 285.667V321.334M73.793 285.667H110.69M73.793 321.334V357M73.793 321.334H110.69M73.793 357V392.667M73.793 357H110.69M73.793 392.667V428.333M73.793 392.667H110.69M73.793 428.333H110.69M73.793 428.333V464M110.69 0.333496V36.0001M110.69 0.333496H147.586M110.69 36.0001V71.6668M110.69 36.0001H147.586M110.69 71.6668V107.334M110.69 71.6668H147.586M110.69 107.334V143M110.69 107.334H147.586M110.69 143V178.667M110.69 143H147.586M110.69 178.667V214.334M110.69 178.667H147.586M110.69 214.334V250M110.69 214.334H147.586M110.69 250V285.667M110.69 250H147.586M110.69 285.667V321.334M110.69 285.667H147.586M110.69 321.334V357M110.69 321.334H147.586M110.69 357V392.667M110.69 357H147.586M110.69 392.667V428.333M110.69 392.667H147.586M110.69 428.333H147.586M110.69 428.333V464M147.586 0.333496V36.0001M147.586 0.333496H184.483M147.586 36.0001V71.6668M147.586 36.0001H184.483M147.586 71.6668V107.334M147.586 71.6668H184.483M147.586 107.334V143M147.586 107.334H184.483M147.586 143V178.667M147.586 143H184.483M147.586 178.667V214.334M147.586 178.667H184.483M147.586 214.334V250M147.586 214.334H184.483M147.586 250V285.667M147.586 250H184.483M147.586 285.667V321.334M147.586 285.667H184.483M147.586 321.334V357M147.586 321.334H184.483M147.586 357V392.667M147.586 357H184.483M147.586 392.667V428.333M147.586 392.667H184.483M147.586 428.333H184.483M147.586 428.333V464M184.483 0.333496V36.0001M184.483 0.333496H221.379M184.483 36.0001V71.6668M184.483 36.0001H221.379M184.483 71.6668V107.334M184.483 71.6668H221.379M184.483 107.334V143M184.483 107.334H221.379M184.483 143V178.667M184.483 143H221.379M184.483 178.667V214.334M184.483 178.667H221.379M184.483 214.334V250M184.483 214.334H221.379M184.483 250V285.667M184.483 250H221.379M184.483 285.667V321.334M184.483 285.667H221.379M184.483 321.334V357M184.483 321.334H221.379M184.483 357V392.667M184.483 357H221.379M184.483 392.667V428.333M184.483 392.667H221.379M184.483 428.333H221.379M184.483 428.333V464M221.379 0.333496V36.0001M221.379 0.333496H258.276M221.379 36.0001V71.6668M221.379 36.0001H258.276M221.379 71.6668V107.334M221.379 71.6668H258.276M221.379 107.334V143M221.379 107.334H258.276M221.379 143V178.667M221.379 143H258.276M221.379 178.667V214.334M221.379 178.667H258.276M221.379 214.334V250M221.379 214.334H258.276M221.379 250V285.667M221.379 250H258.276M221.379 285.667V321.334M221.379 285.667H258.276M221.379 321.334V357M221.379 321.334H258.276M221.379 357V392.667M221.379 357H258.276M221.379 392.667V428.333M221.379 392.667H258.276M221.379 428.333H258.276M221.379 428.333V464M258.276 0.333496V36.0001M258.276 0.333496H295.172M258.276 36.0001V71.6668M258.276 36.0001H295.172M258.276 71.6668V107.334M258.276 71.6668H295.172M258.276 107.334V143M258.276 107.334H295.172M258.276 143V178.667M258.276 143H295.172M258.276 178.667V214.334M258.276 178.667H295.172M258.276 214.334V250M258.276 214.334H295.172M258.276 250V285.667M258.276 250H295.172M258.276 285.667V321.334M258.276 285.667H295.172M258.276 321.334V357M258.276 321.334H295.172M258.276 357V392.667M258.276 357H295.172M258.276 392.667V428.333M258.276 392.667H295.172M258.276 428.333H295.172M258.276 428.333V464M295.172 0.333496V36.0001M295.172 0.333496H332.069M295.172 36.0001V71.6668M295.172 36.0001H332.069M295.172 71.6668V107.334M295.172 71.6668H332.069M295.172 107.334V143M295.172 107.334H332.069M295.172 143V178.667M295.172 143H332.069M295.172 178.667V214.334M295.172 178.667H332.069M295.172 214.334V250M295.172 214.334H332.069M295.172 250V285.667M295.172 250H332.069M295.172 285.667V321.334M295.172 285.667H332.069M295.172 321.334V357M295.172 321.334H332.069M295.172 357V392.667M295.172 357H332.069M295.172 392.667V428.333M295.172 392.667H332.069M295.172 428.333H332.069M295.172 428.333V464M332.069 0.333496V36.0001M332.069 0.333496H368.965M332.069 36.0001V71.6668M332.069 36.0001H368.965M332.069 71.6668V107.334M332.069 71.6668H368.965M332.069 107.334V143M332.069 107.334H368.965M332.069 143V178.667M332.069 143H368.965M332.069 178.667V214.334M332.069 178.667H368.965M332.069 214.334V250M332.069 214.334H368.965M332.069 250V285.667M332.069 250H368.965M332.069 285.667V321.334M332.069 285.667H368.965M332.069 321.334V357M332.069 321.334H368.965M332.069 357V392.667M332.069 357H368.965M332.069 392.667V428.333M332.069 392.667H368.965M332.069 428.333H368.965M332.069 428.333V464M368.965 0.333496V36.0001M368.965 0.333496H405.862V36.0001M368.965 36.0001V71.6668M368.965 36.0001H405.862M368.965 71.6668V107.334M368.965 71.6668H405.862M368.965 107.334V143M368.965 107.334H405.862M368.965 143V178.667M368.965 143H405.862M368.965 178.667V214.334M368.965 178.667H405.862M368.965 214.334V250M368.965 214.334H405.862M368.965 250V285.667M368.965 250H405.862M368.965 285.667V321.334M368.965 285.667H405.862M368.965 321.334V357M368.965 321.334H405.862M368.965 357V392.667M368.965 357H405.862M368.965 392.667V428.333M368.965 392.667H405.862M368.965 428.333H405.862M368.965 428.333V464M405.862 36.0001V71.6668M405.862 71.6668V107.334M405.862 107.334V143M405.862 143V178.667M405.862 178.667V214.334M405.862 214.334V250M405.862 250V285.667M405.862 285.667V321.334M405.862 321.334V357M405.862 357V392.667M405.862 392.667V428.333M405.862 428.333V464H368.965M36.8965 464H73.793M73.793 464H110.69M110.69 464H147.586M147.586 464H184.483M184.483 464H221.379M221.379 464H258.276M258.276 464H295.172M295.172 464H332.069M332.069 464H368.965" stroke="#93C5FD" style="stroke:#93C5FD;stroke:color(display-p3 0.5765 0.7725 0.9922);stroke-opacity:1;" stroke-width="0.804612"/>
<rect width="392" height="464" fill="url(#paint0_linear_1570_2204)" style=""/>
<g filter="url(#filter0_f_1570_2204)">
<circle cx="337.5" cy="151.5" r="100.5" fill="#DBEAFE" style="fill:#DBEAFE;fill:color(display-p3 0.8588 0.9176 0.9961);fill-opacity:1;"/>
</g>
<g filter="url(#filter1_f_1570_2204)">
<circle cx="128.5" cy="383.5" r="143.5" fill="#DBEAFE" style="fill:#DBEAFE;fill:color(display-p3 0.8588 0.9176 0.9961);fill-opacity:1;"/>
</g>
</g>
<path d="M24 0.5H368C380.979 0.5 391.5 11.0213 391.5 24V440C391.5 452.979 380.979 463.5 368 463.5H24C11.0213 463.5 0.5 452.979 0.5 440V24C0.5 11.0213 11.0213 0.5 24 0.5Z" stroke="#DBEAFE" style="stroke:#DBEAFE;stroke:color(display-p3 0.8588 0.9176 0.9961);stroke-opacity:1;"/>
<defs>
<filter id="filter0_f_1570_2204" x="71.9" y="-114.1" width="531.2" height="531.2" filterUnits="userSpaceOnUse" color-interpolation-filters="sRGB">
<feFlood flood-opacity="0" result="BackgroundImageFix"/>
<feBlend mode="normal" in="SourceGraphic" in2="BackgroundImageFix" result="shape"/>
<feGaussianBlur stdDeviation="82.55" result="effect1_foregroundBlur_1570_2204"/>
</filter>
<filter id="filter1_f_1570_2204" x="-112.7" y="142.3" width="482.4" height="482.4" filterUnits="userSpaceOnUse" color-interpolation-filters="sRGB">
<feFlood flood-opacity="0" result="BackgroundImageFix"/>
<feBlend mode="normal" in="SourceGraphic" in2="BackgroundImageFix" result="shape"/>
<feGaussianBlur stdDeviation="48.85" result="effect1_foregroundBlur_1570_2204"/>
</filter>
<linearGradient id="paint0_linear_1570_2204" x1="196" y1="464" x2="196" y2="1.5505e-06" gradientUnits="userSpaceOnUse">
<stop stop-color="white" style="stop-color:white;stop-opacity:1;"/>
<stop offset="0.424463" stop-color="white" stop-opacity="0.6" style="stop-color:white;stop-opacity:0.6;"/>
<stop offset="0.698039" stop-color="white" stop-opacity="0.4" style="stop-color:white;stop-opacity:0.4;"/>
<stop offset="1" stop-color="white" stop-opacity="0" style="stop-color:none;stop-opacity:0;"/>
</linearGradient>
<clipPath id="clip0_1570_2204">
<path d="M0 24C0 10.7452 10.7452 0 24 0H368C381.255 0 392 10.7452 392 24V440C392 453.255 381.255 464 368 464H24C10.7452 464 0 453.255 0 440V24Z" fill="white" style="fill:white;fill-opacity:1;"/>
</clipPath>
</defs>
</svg>
